<svg width="669" height="500" viewBox="0 0 669 500" fill="none" xmlns="http://www.w3.org/2000/svg">
<g opacity="0.9">
<path d="M585.885 429.778L71.1193 415.028C47.1629 414.335 27.4632 396.022 25.0874 372.164L0.240049 126.661C-2.53177 98.8434 19.0488 74.5901 46.9649 74.1941L619.939 66.2746C648.845 65.8786 671.514 91.122 667.951 119.83L634.59 388.003C631.521 412.356 610.435 430.471 585.885 429.778Z" fill="#EAF9F3"/>
<mask id="mask0_36_2" style="mask-type:alpha" maskUnits="userSpaceOnUse" x="0" y="66" width="669" height="364">
<path d="M585.885 429.778L71.1193 415.028C47.1629 414.335 27.4632 396.022 25.0874 372.164L0.240049 126.661C-2.53177 98.8434 19.0488 74.5901 46.9649 74.1941L619.939 66.2746C648.845 65.8786 671.514 91.122 667.951 119.83L634.59 388.003C631.521 412.356 610.435 430.471 585.885 429.778Z" fill="#EAF9F3"/>
</mask>
<g mask="url(#mask0_36_2)">
<path d="M440.365 554.807H851.682C859.899 554.807 866.531 548.174 866.531 539.958V306.631C866.531 298.414 859.899 291.781 851.682 291.781H440.365C432.148 291.781 425.516 298.414 425.516 306.631V539.859C425.516 548.075 432.148 554.807 440.365 554.807Z" stroke="#B8D8C7" stroke-width="1.8" stroke-miterlimit="10" stroke-linecap="round" stroke-linejoin="round"/>
<path d="M-59.1554 492.837H355.726C363.942 492.837 370.575 486.204 370.575 477.988V137.154C370.575 128.937 363.942 122.305 355.726 122.305H-59.1554C-67.3718 122.305 -74.0044 128.937 -74.0044 137.154V477.988C-74.0044 486.204 -67.3718 492.837 -59.1554 492.837Z" stroke="#B8D8C7" stroke-width="1.8" stroke-miterlimit="10" stroke-linecap="round" stroke-linejoin="round"/>
<path d="M102.303 226.149H122.398C124.576 226.149 126.358 224.565 126.655 222.387L128.239 208.132C128.536 205.657 126.556 203.38 123.982 203.38H100.719C98.145 203.38 96.2641 205.558 96.462 208.132L98.0459 222.387C98.3429 224.466 100.224 226.149 102.303 226.149Z" stroke="#B8D8C7" stroke-width="1.8" stroke-miterlimit="10" stroke-linecap="round" stroke-linejoin="round"/>
<path d="M114.776 203.38C114.776 203.38 122.695 202.588 124.279 191.897C124.279 191.897 117.152 193.976 114.875 199.025C114.875 199.025 113.885 187.739 108.539 186.651C108.539 186.651 106.164 195.065 109.925 199.223C109.925 199.223 107.055 194.471 99.729 194.57C99.729 194.57 101.61 201.302 108.836 203.281" fill="#B8D8C7"/>
<path d="M443.533 340.981H532.825C535.101 340.981 536.982 339.101 536.982 336.824V309.699C536.982 307.423 535.101 305.542 532.825 305.542H443.533C441.256 305.542 439.375 307.423 439.375 309.699V336.824C439.276 339.101 441.157 340.981 443.533 340.981Z" stroke="#B8D8C7" stroke-width="1.8" stroke-miterlimit="10" stroke-linecap="round" stroke-linejoin="round"/>
<path d="M477.883 315.144H498.474C499.266 315.144 499.959 314.451 499.959 313.659C499.959 312.867 499.266 312.174 498.474 312.174H477.883C477.091 312.174 476.398 312.867 476.398 313.659C476.398 314.451 477.091 315.144 477.883 315.144Z" fill="#B8D8C7"/>
<path d="M443.533 386.32H532.825C535.101 386.32 536.982 384.439 536.982 382.163V355.038C536.982 352.762 535.101 350.881 532.825 350.881H443.533C441.256 350.881 439.375 352.762 439.375 355.038V382.163C439.276 384.439 441.157 386.32 443.533 386.32Z" stroke="#B8D8C7" stroke-width="1.8" stroke-miterlimit="10" stroke-linecap="round" stroke-linejoin="round"/>
<path d="M477.883 360.483H498.474C499.266 360.483 499.959 359.79 499.959 358.998C499.959 358.206 499.266 357.513 498.474 357.513H477.883C477.091 357.513 476.398 358.206 476.398 358.998C476.398 359.79 477.091 360.483 477.883 360.483Z" fill="#B8D8C7"/>
<path d="M29.0472 372.164H118.339C120.616 372.164 122.497 370.283 122.497 368.007V340.882C122.497 338.605 120.616 336.725 118.339 336.725H29.0472C26.7703 336.725 24.8895 338.605 24.8895 340.882V368.007C24.7905 370.283 26.6714 372.164 29.0472 372.164Z" stroke="#B8D8C7" stroke-width="1.8" stroke-miterlimit="10" stroke-linecap="round" stroke-linejoin="round"/>
<path d="M63.398 346.228H83.9886C84.7805 346.228 85.4735 345.535 85.4735 344.743C85.4735 343.951 84.7805 343.258 83.9886 343.258H63.398C62.606 343.258 61.9131 343.951 61.9131 344.743C61.9131 345.634 62.606 346.228 63.398 346.228Z" fill="#B8D8C7"/>
<path d="M143.682 372.164H232.974C235.251 372.164 237.132 370.283 237.132 368.007V340.882C237.132 338.605 235.251 336.725 232.974 336.725H143.682C141.405 336.725 139.524 338.605 139.524 340.882V368.007C139.425 370.283 141.306 372.164 143.682 372.164Z" stroke="#B8D8C7" stroke-width="1.8" stroke-miterlimit="10" stroke-linecap="round" stroke-linejoin="round"/>
<path d="M178.032 346.228H198.623C199.415 346.228 200.108 345.535 200.108 344.743C200.108 343.951 199.415 343.258 198.623 343.258H178.032C177.24 343.258 176.547 343.951 176.547 344.743C176.547 345.634 177.24 346.228 178.032 346.228Z" fill="#B8D8C7"/>
<path d="M557.276 340.981H646.568C648.845 340.981 650.726 339.101 650.726 336.824V309.699C650.726 307.423 648.845 305.542 646.568 305.542H557.276C554.999 305.542 553.118 307.423 553.118 309.699V336.824C553.118 339.101 554.999 340.981 557.276 340.981Z" stroke="#B8D8C7" stroke-width="1.8" stroke-miterlimit="10" stroke-linecap="round" stroke-linejoin="round"/>
<path d="M591.725 315.144H612.316C613.108 315.144 613.801 314.451 613.801 313.659C613.801 312.867 613.108 312.174 612.316 312.174H591.725C590.933 312.174 590.24 312.867 590.24 313.659C590.24 314.451 590.834 315.144 591.725 315.144Z" fill="#B8D8C7"/>
<path d="M557.276 386.32H646.568C648.845 386.32 650.726 384.439 650.726 382.163V355.038C650.726 352.762 648.845 350.881 646.568 350.881H557.276C554.999 350.881 553.118 352.762 553.118 355.038V382.163C553.118 384.439 554.999 386.32 557.276 386.32Z" stroke="#B8D8C7" stroke-width="1.8" stroke-miterlimit="10" stroke-linecap="round" stroke-linejoin="round"/>
<path d="M591.725 360.483H612.316C613.108 360.483 613.801 359.79 613.801 358.998C613.801 358.206 613.108 357.513 612.316 357.513H591.725C590.933 357.513 590.24 358.206 590.24 358.998C590.24 359.79 590.834 360.483 591.725 360.483Z" fill="#B8D8C7"/>
<path d="M-101.03 226.149H349.39C351.864 226.149 353.943 224.07 353.943 221.595V142.698C353.943 140.223 351.864 138.144 349.39 138.144H-101.03C-103.505 138.144 -105.584 140.223 -105.584 142.698V221.595C-105.584 224.07 -103.505 226.149 -101.03 226.149Z" stroke="#B8D8C7" stroke-width="1.8" stroke-miterlimit="10" stroke-linecap="round" stroke-linejoin="round"/>
<path d="M-101.03 324.053H349.39C351.864 324.053 353.943 321.975 353.943 319.5V240.602C353.943 238.127 351.864 236.048 349.39 236.048H-101.03C-103.505 236.048 -105.584 238.127 -105.584 240.602V319.5C-105.584 321.975 -103.505 324.053 -101.03 324.053Z" stroke="#B8D8C7" stroke-width="1.8" stroke-miterlimit="10" stroke-linecap="round" stroke-linejoin="round"/>
<path d="M313.83 226.146H323.63V176.352H313.83V226.146Z" stroke="#B8D8C7" stroke-width="1.8" stroke-miterlimit="10" stroke-linecap="round" stroke-linejoin="round"/>
<path d="M303.69 226.061H313.886V189.829H303.69V226.061Z" stroke="#B8D8C7" stroke-width="1.8" stroke-miterlimit="10" stroke-linecap="round" stroke-linejoin="round"/>
<path d="M18.456 323.892H28.2563L28.2563 274.098H18.456L18.456 323.892Z" stroke="#B8D8C7" stroke-width="1.8" stroke-miterlimit="10" stroke-linecap="round" stroke-linejoin="round"/>
<path d="M8.3154 323.906H18.5117L18.5117 287.675H8.3154L8.3154 323.906Z" stroke="#B8D8C7" stroke-width="1.8" stroke-miterlimit="10" stroke-linecap="round" stroke-linejoin="round"/>
<path d="M38.4375 323.892H48.2378L48.2378 274.098H38.4375L38.4375 323.892Z" stroke="#B8D8C7" stroke-width="1.8" stroke-miterlimit="10" stroke-linecap="round" stroke-linejoin="round"/>
<path d="M63.0909 323.477L72.4365 320.526L57.4437 273.043L48.098 275.994L63.0909 323.477Z" stroke="#B8D8C7" stroke-width="1.8" stroke-miterlimit="10" stroke-linecap="round" stroke-linejoin="round"/>
<path d="M28.2988 323.906H38.4951L38.4951 287.675H28.2988L28.2988 323.906Z" stroke="#B8D8C7" stroke-width="1.8" stroke-miterlimit="10" stroke-linecap="round" stroke-linejoin="round"/>
<path d="M150.688 226.146H160.488V176.352H150.688V226.146Z" stroke="#B8D8C7" stroke-width="1.8" stroke-miterlimit="10" stroke-linecap="round" stroke-linejoin="round"/>
<path d="M140.548 226.061H150.744V189.829H140.548V226.061Z" stroke="#B8D8C7" stroke-width="1.8" stroke-miterlimit="10" stroke-linecap="round" stroke-linejoin="round"/>
<path d="M247.431 226.146H257.231V176.352H247.431V226.146Z" stroke="#B8D8C7" stroke-width="1.8" stroke-miterlimit="10" stroke-linecap="round" stroke-linejoin="round"/>
<path d="M272.08 225.647L281.425 222.697L266.432 175.213L257.087 178.164L272.08 225.647Z" stroke="#B8D8C7" stroke-width="1.8" stroke-miterlimit="10" stroke-linecap="round" stroke-linejoin="round"/>
<path d="M237.291 226.061H247.487V189.829H237.291V226.061Z" stroke="#B8D8C7" stroke-width="1.8" stroke-miterlimit="10" stroke-linecap="round" stroke-linejoin="round"/>
<path d="M18.653 182.79L17.5641 168.04C17.4651 167.05 18.2571 166.258 19.247 166.258H23.5037H27.7604C28.7504 166.258 29.4433 167.05 29.4433 168.04L28.3544 182.79C28.3544 182.79 37.2638 188.531 37.1648 193.283C37.0658 196.946 34.8879 214.468 33.898 222.189C33.601 224.367 31.8191 225.951 29.6413 225.951H23.5037H17.3661C15.1883 225.951 13.4064 224.367 13.1094 222.189C12.1195 214.468 9.94161 196.946 9.84262 193.283C9.74362 188.531 18.653 182.79 18.653 182.79Z" fill="#B8D8C7"/>
<path d="M672.999 405.03L-274.565 395.625" stroke="#B8D8C7" stroke-width="1.8" stroke-miterlimit="10" stroke-linecap="round" stroke-linejoin="round"/>
</g>
<path d="M323.651 261.886L304.347 416.117C304.149 417.8 305.436 419.285 307.119 419.285C308.505 419.285 309.692 418.295 309.89 416.909L331.966 265.746L323.651 261.886Z" fill="#B8D8C7"/>
<path d="M383.641 283.961L402.944 438.193C403.142 439.876 401.855 441.361 400.173 441.361C398.787 441.361 397.599 440.371 397.401 438.985L375.325 287.822L383.641 283.961Z" fill="#B8D8C7"/>
<path d="M289.993 277.922L264.056 431.164C263.759 432.847 265.046 434.332 266.729 434.431C268.115 434.53 269.303 433.54 269.6 432.154L298.209 282.08L289.993 277.922Z" fill="#B8D8C7"/>
<path d="M362.654 262.578L376.909 417.305C377.107 418.988 378.691 420.176 380.275 419.78C381.661 419.483 382.552 418.196 382.453 416.909L371.663 264.459L362.654 262.578Z" fill="#B8D8C7"/>
<path d="M403.934 124.879C393.144 123.097 357.407 248.224 357.407 248.224H391.758C391.758 248.224 374.929 268.32 374.335 270.201C373.741 272.082 367.604 297.523 367.604 297.523C408.686 284.456 399.578 248.125 399.578 248.125C390.768 220.902 403.043 186.057 408.29 157.25C413.537 128.343 403.934 124.879 403.934 124.879Z" fill="#FFE779"/>
<path d="M276.629 290.891C276.629 290.891 277.52 304.453 312.86 306.433C348.201 308.413 393.738 304.948 399.678 264.855C399.777 264.855 283.756 279.605 276.629 290.891Z" fill="#FFE779"/>
<path d="M390.966 245.453C381.364 210.409 418.486 132.105 404.033 124.78C389.184 117.355 332.164 120.424 316.82 133.689C302.466 146.162 295.932 238.622 295.14 250.303C295.041 250.699 295.041 251.095 295.041 251.491C295.041 258.421 294.051 270.102 289.003 273.765C279.202 280.892 263.067 291.683 293.952 299.602C293.952 299.602 307.317 302.671 345.429 301.087C397.005 298.909 391.857 267.132 391.758 248.125C391.758 247.235 391.461 246.344 390.966 245.453Z" fill="white"/>
<path d="M253.168 423.245C253.168 423.245 257.523 444.033 258.513 445.716C259.503 447.399 266.928 451.062 277.025 448.092C287.122 445.023 287.419 441.361 287.419 441.361C287.419 441.361 285.439 417.503 285.439 414.83C285.34 412.157 251.485 407.406 253.168 423.245Z" fill="#B28D93"/>
<path d="M286.43 429.976C285.935 423.443 285.341 416.216 285.341 414.83C285.341 412.157 251.386 407.406 253.069 423.245C253.069 423.245 253.762 426.413 254.554 430.372C265.245 433.243 276.233 433.045 286.43 429.976Z" fill="#896068"/>
<path d="M257.424 442.152C257.424 442.152 256.237 444.033 256.237 453.834C256.237 463.634 241.388 485.809 242.377 491.847C243.367 497.886 285.143 499.371 288.904 494.916C292.666 490.362 288.706 457.595 289.003 454.131C289.201 450.567 290.587 444.132 287.221 439.975C287.221 439.975 283.757 443.439 280.985 444.033C278.213 444.627 275.639 438.985 270.195 437.995C264.75 437.005 261.186 443.439 260.592 444.033C259.998 444.627 257.622 443.835 257.424 442.152Z" fill="#22272E"/>
<path d="M259.207 465.317C259.207 465.317 267.621 459.476 280.985 466.109" stroke="white" stroke-width="1.8" stroke-miterlimit="10" stroke-linecap="round" stroke-linejoin="round"/>
<path d="M255.94 474.622C255.94 474.622 267.621 466.406 281.084 476.305" stroke="white" stroke-width="1.8" stroke-miterlimit="10" stroke-linecap="round" stroke-linejoin="round"/>
<path d="M360.774 434.53C360.774 434.53 367.505 453.339 371.168 456.705C374.831 460.07 384.631 460.367 391.363 456.705C398.094 453.042 397.797 447.498 397.797 447.498C397.797 447.498 391.957 416.711 390.67 415.919C389.284 415.028 360.774 425.522 360.774 434.53Z" fill="#B28D93"/>
<path d="M360.774 434.53C360.774 434.53 362.457 439.183 364.536 444.33C376.019 446.31 386.017 442.45 395.719 436.906C393.937 427.898 391.462 416.414 390.67 415.919C389.284 415.028 360.774 425.522 360.774 434.53Z" fill="#896068"/>
<path d="M368.099 451.458C368.099 451.458 367.208 451.755 369.782 460.07C371.069 464.525 356.814 487.393 357.111 493.035C357.408 498.678 369.287 499.668 378.692 499.965C393.046 500.361 402.45 497.49 403.242 488.284C404.034 479.077 401.559 461.159 401.559 457.2C401.559 453.24 400.272 448.686 397.005 443.341C397.005 443.341 397.302 450.765 394.333 452.151C391.363 453.636 385.819 448.191 381.562 449.28C377.306 450.369 375.524 453.636 373.742 455.517C371.96 457.299 368.594 452.547 368.099 451.458Z" fill="#22272E"/>
<path d="M372.456 470.663C372.456 470.663 380.177 462.941 393.739 468.881" stroke="white" stroke-width="1.8" stroke-miterlimit="10" stroke-linecap="round" stroke-linejoin="round"/>
<path d="M368.198 479.473C368.198 479.473 380.374 469.376 393.639 478.681" stroke="white" stroke-width="1.8" stroke-miterlimit="10" stroke-linecap="round" stroke-linejoin="round"/>
<path d="M291.28 246.146C291.28 246.146 245.842 271.191 233.864 294.157C221.886 317.124 240.595 390.28 240.298 405.723C240.001 421.166 241.981 423.443 250.594 426.71C259.206 429.976 277.916 429.283 285.736 423.443C295.834 415.919 291.181 402.159 288.904 385.528C286.627 368.996 285.538 319.797 285.538 319.797C285.538 319.797 306.921 302.473 317.414 297.325C319.493 296.236 321.77 295.84 323.849 295.642C327.116 295.444 329.491 298.513 328.601 301.582C326.027 310.689 322.364 333.557 323.849 344.05C325.235 353.85 332.065 378.104 345.429 419.186C348.102 427.304 348.993 433.837 352.26 436.609C366.02 448.191 395.916 435.817 399.084 425.027C400.371 420.572 397.104 405.426 392.847 388.894C386.809 365.235 378.691 338.704 379.285 335.834C380.275 330.983 393.045 286.436 389.679 266.439C381.562 218.031 344.044 237.533 291.28 246.146Z" fill="#22272E"/>
<path d="M248.119 324.449C256.375 324.449 263.067 317.136 263.067 308.116C263.067 299.095 256.375 291.782 248.119 291.782C239.864 291.782 233.171 299.095 233.171 308.116C233.171 317.136 239.864 324.449 248.119 324.449Z" stroke="#63737A" stroke-width="1.8" stroke-miterlimit="10" stroke-linecap="round" stroke-linejoin="round"/>
<path d="M347.198 360.526C355.647 359.364 361.495 351.134 360.259 342.142C359.023 333.151 351.171 326.804 342.721 327.966C334.272 329.127 328.424 337.358 329.66 346.349C330.896 355.34 338.748 361.687 347.198 360.526Z" stroke="#63737A" stroke-width="1.8" stroke-miterlimit="10" stroke-linecap="round" stroke-linejoin="round"/>
<path d="M285.539 319.797C285.539 319.797 284.945 313.659 283.064 310.392" stroke="#63737A" stroke-width="1.8" stroke-miterlimit="10" stroke-linecap="round" stroke-linejoin="round"/>
<path d="M325.136 295.345C325.136 295.345 326.225 288.515 324.443 286.535" stroke="#63737A" stroke-width="1.8" stroke-miterlimit="10" stroke-linecap="round" stroke-linejoin="round"/>
<path d="M312.861 287.327C312.861 287.327 320.186 286.733 336.025 287.327" stroke="#63737A" stroke-width="1.8" stroke-miterlimit="10" stroke-linecap="round" stroke-linejoin="round"/>
<path d="M297.121 145.469C297.121 145.469 291.379 147.548 282.47 161.011C273.858 173.979 266.136 182.097 266.136 182.097C266.136 182.097 255.94 170.911 245.249 163.783C234.557 156.656 222.381 145.469 222.381 145.469C222.381 145.469 214.363 141.114 209.314 147.053C204.265 152.894 206.839 161.605 206.839 161.605C206.839 161.605 218.817 177.84 236.438 199.025C247.921 212.884 259.603 222.783 269.403 219.714C282.47 215.656 308.208 192.293 312.663 182.988C317.019 173.583 313.752 142.104 297.121 145.469Z" fill="#6DAFA7"/>
<path d="M266.037 182.097C266.037 182.097 269.6 186.453 271.283 191.897" stroke="#22272E" stroke-width="1.8" stroke-miterlimit="10" stroke-linecap="round" stroke-linejoin="round"/>
<path d="M222.777 145.964C222.777 145.964 214.857 139.431 209.215 140.025C201.889 140.817 201.988 139.134 197.335 140.124C195.158 140.619 191.198 142.203 187.04 147.35C182.882 152.498 181.398 155.171 181.398 155.171C181.398 155.171 177.042 145.865 174.369 147.35C171.696 148.736 178.032 163.09 180.21 164.575C182.387 166.06 188.822 163.486 191.099 164.575C193.376 165.664 199.513 163.684 199.513 163.684L207.928 161.605L210.106 163.981C210.799 164.773 211.887 164.971 212.877 164.674C214.857 163.882 218.223 162.001 220.401 157.349C223.866 150.122 222.777 145.964 222.777 145.964Z" fill="#B28D93"/>
<path d="M181.398 155.171C181.398 155.171 177.042 145.865 174.369 147.35C171.696 148.736 178.032 163.09 180.21 164.575C182.387 166.06 188.822 163.486 191.099 164.575" stroke="#896068" stroke-width="1.8" stroke-miterlimit="10" stroke-linecap="round" stroke-linejoin="round"/>
<path d="M212.581 152.3C212.581 152.3 209.71 159.823 206.146 164.674C202.483 169.525 197.237 169.723 194.861 168.139C192.485 166.654 195.653 155.666 196.346 152.993C197.039 150.32 199.217 147.845 200.602 150.815C201.691 153.092 200.107 158.537 200.404 162.892" fill="#B28D93"/>
<path d="M196.148 167.248C196.148 167.248 193.08 169.129 191.298 168.535C189.516 167.941 188.427 166.654 188.13 163.981C187.833 161.407 188.823 153.29 188.724 151.211C188.625 149.132 191.892 147.449 193.278 152.201C194.664 157.052 193.971 161.11 194.862 162.1" fill="#B28D93"/>
<path d="M189.416 165.862C189.416 165.862 187.14 167.05 184.764 167.248C182.388 167.446 181.299 165.862 180.507 161.011C179.616 155.171 178.923 149.231 181.002 148.934C183.081 148.637 184.17 151.805 184.962 155.072C185.754 158.339 186.249 160.417 186.744 160.516" fill="#B28D93"/>
<path d="M198.326 140.025C198.326 140.025 192.683 140.421 190.604 140.421C188.625 140.421 183.081 139.035 181.893 140.718C180.705 142.401 184.071 145.469 190.109 146.261C196.148 147.152 201.989 142.302 198.326 140.025Z" fill="#B28D93"/>
<path d="M212.581 169.228C212.581 169.228 220.402 171.802 225.846 163.981C230.697 157.052 228.816 151.112 228.816 151.112" stroke="#22272E" stroke-width="1.8" stroke-miterlimit="10" stroke-linecap="round" stroke-linejoin="round"/>
<path d="M253.563 215.755C253.563 215.755 251.683 213.478 256.533 212.092C261.483 210.706 280.292 209.914 278.015 215.359" stroke="#22272E" stroke-width="1.8" stroke-miterlimit="10" stroke-linecap="round" stroke-linejoin="round"/>
<path d="M212.581 152.3C212.581 152.3 209.71 159.823 206.146 164.674C202.483 169.525 197.237 169.723 194.861 168.139C192.485 166.654 195.653 155.666 196.346 152.993C197.039 150.32 199.217 147.845 200.602 150.815C201.691 153.092 200.107 158.537 200.404 162.892" stroke="#896068" stroke-width="1.8" stroke-miterlimit="10" stroke-linecap="round" stroke-linejoin="round"/>
<path d="M194.268 168.139C193.278 168.535 192.189 168.832 191.298 168.535C189.516 167.941 188.427 166.654 188.13 163.981C187.833 161.407 188.823 153.29 188.724 151.211C188.625 149.132 191.892 147.449 193.278 152.201C194.268 155.765 194.169 158.833 194.466 160.714" stroke="#896068" stroke-width="1.8" stroke-miterlimit="10" stroke-linecap="round" stroke-linejoin="round"/>
<path d="M188.625 166.159C187.734 166.555 186.348 167.05 184.764 167.149C182.388 167.347 181.299 165.763 180.507 160.912C179.616 155.072 178.923 149.132 181.002 148.835C183.081 148.538 184.17 151.706 184.962 154.973C185.754 158.239 186.249 160.318 186.744 160.417" stroke="#896068" stroke-width="1.8" stroke-miterlimit="10" stroke-linecap="round" stroke-linejoin="round"/>
<path d="M188.328 146.063C188.328 146.063 191.397 142.995 193.872 141.609" stroke="#896068" stroke-width="1.8" stroke-miterlimit="10" stroke-linecap="round" stroke-linejoin="round"/>
<path d="M308.011 92.706C307.912 90.9241 308.011 89.1422 308.308 87.3603C309.1 83.2026 311.179 74.4912 314.643 71.6204C319.791 67.3637 322.563 73.6992 322.563 73.6992C322.563 73.6992 326.127 69.0465 329.492 69.5415C332.858 69.9375 334.64 73.9962 334.64 73.9962C334.64 73.9962 340.085 69.5415 343.351 71.7194C346.618 73.7982 347.509 77.263 347.509 77.263C347.509 77.263 350.974 73.3033 354.637 74.8872C358.299 76.57 358.992 85.8754 358.992 85.8754C358.992 85.8754 362.655 87.9543 363.447 95.1808C364.338 102.902 360.576 114.287 352.855 127.354C352.855 127.354 336.917 98.6456 326.82 94.5868C316.722 90.5281 316.821 98.0516 313.653 98.2496C310.882 98.3486 308.506 98.0516 308.011 92.706Z" fill="#22272E"/>
<path d="M309.99 146.261C309.99 146.261 297.616 147.746 312.069 134.679C324.542 123.394 366.12 126.562 371.465 136.263C375.425 143.489 380.474 162.793 363.645 174.375C346.816 185.859 317.514 173.682 309.99 146.261Z" fill="#6DAFA7"/>
<path d="M333.749 142.599C333.749 142.599 345.331 142.104 355.032 141.708C364.634 141.213 378.889 141.51 386.71 152.201C395.718 164.377 382.156 206.35 380.176 217.042C378.197 227.733 385.819 240.602 385.423 249.412C385.225 254.461 378.889 267.726 350.775 270.201C318.998 273.072 290.983 266.538 287.915 248.225C285.836 235.949 293.953 227.337 291.181 207.34C289.696 196.847 287.816 162.892 291.379 153.29C294.943 143.687 300.883 140.52 333.749 142.599Z" fill="#FFE779"/>
<path d="M321.869 132.897C321.869 132.897 320.483 143.886 319.889 146.756C319.394 149.627 320.879 157.745 332.362 157.646C344.737 157.547 352.458 147.647 352.755 143.688C353.052 139.728 352.062 120.622 353.745 114.287C355.428 107.951 339.589 111.614 332.758 115.574C325.928 119.533 321.176 129.631 321.869 132.897Z" fill="#B28D93"/>
<path d="M342.361 132.006C335.927 133.491 328.007 139.035 321.177 137.946C320.979 139.629 320.682 141.411 320.484 142.995C329.591 144.48 338.204 138.738 342.361 132.006Z" fill="#896068"/>
<path d="M320.88 140.322C320.88 140.322 319.296 151.706 328.898 157.349C328.898 157.349 339.986 156.359 348.103 148.439C351.172 145.469 352.756 141.312 352.756 137.055V136.164C352.756 136.164 368.298 136.362 372.752 141.015C381.266 149.924 346.321 164.08 327.314 167.05C327.314 167.05 309.694 157.25 305.536 147.251C301.378 137.154 319.494 140.718 320.88 140.322Z" fill="#6DAFA7"/>
<path d="M324.046 160.813C324.046 160.813 319.493 174.178 318.305 189.819" stroke="#22272E" stroke-width="1.8" stroke-miterlimit="10" stroke-linecap="round" stroke-linejoin="round"/>
<path d="M320.582 191.007C320.681 189.72 319.988 185.76 318.701 185.661C317.414 185.562 315.929 189.324 315.83 190.611C315.731 191.898 316.721 193.085 318.008 193.184C319.295 193.382 320.483 192.393 320.582 191.007Z" fill="#6DAFA7"/>
<path d="M335.629 161.11C335.629 161.11 334.243 175.167 336.718 190.61" stroke="#22272E" stroke-width="1.8" stroke-miterlimit="10" stroke-linecap="round" stroke-linejoin="round"/>
<path d="M339.292 191.402C339.094 190.115 337.51 186.453 336.223 186.651C334.936 186.849 334.342 190.808 334.54 192.095C334.738 193.382 335.926 194.372 337.312 194.174C338.599 193.877 339.49 192.689 339.292 191.402Z" fill="#6DAFA7"/>
<path d="M299.497 235.949C300.784 233.97 304.744 226.842 305.535 219.022C305.733 217.042 307.515 215.656 309.396 215.854C316.722 216.646 333.056 218.131 345.331 217.042C347.311 216.844 348.994 218.329 349.192 220.308C349.588 224.565 351.468 231.792 358.794 238.82C359.388 239.315 359.784 240.008 359.883 240.8C360.378 243.473 361.467 250.006 361.17 255.55C360.774 262.381 314.841 267.033 299.002 252.976C298.21 252.283 297.814 251.194 297.814 250.204C297.913 247.532 298.309 241.988 299.002 237.434C299.101 236.741 299.299 236.345 299.497 235.949Z" fill="#6DAFA7"/>
<path d="M308.901 97.3585C308.901 97.3585 308.703 107.06 307.812 115.375C307.02 123.691 307.812 134.778 321.176 138.243C334.54 141.708 347.509 131.61 352.359 118.345C357.21 105.08 357.408 87.1622 340.381 80.1337C323.354 73.1052 309.693 81.9156 308.901 97.3585Z" fill="#B28D93"/>
<path d="M358.695 105.872C357.408 112.109 356.517 115.474 356.517 115.474L352.36 111.119C352.36 111.119 345.232 110.129 344.242 97.3586C344.044 95.1807 342.856 93.2009 340.876 92.2109C335.036 89.1421 331.967 93.6958 320.583 92.9039C316.722 92.6069 310.782 92.0129 310.98 86.0733C311.475 70.6303 335.333 71.8183 346.618 78.8468C357.903 85.7764 359.982 99.7344 358.695 105.872Z" fill="#22272E"/>
<path d="M347.608 112.01C347.608 112.01 350.182 106.169 354.438 106.763C358.992 107.357 359.388 121.018 347.608 121.81" fill="#B28D93"/>
<path d="M315.138 104.387C315.336 105.773 315.336 107.159 315.237 108.446C315.138 109.832 314.94 111.218 314.445 112.504C314.346 112.801 314.148 113.197 314.049 113.494C313.95 113.791 313.851 113.989 313.752 114.286C313.653 114.781 313.653 115.177 313.851 115.573C314.247 116.464 315.435 117.157 316.721 117.652C316.028 117.85 315.336 117.85 314.544 117.652C313.851 117.454 313.059 117.058 312.564 116.365C312.267 116.068 312.069 115.573 311.97 115.177C311.871 114.682 311.871 114.286 311.97 113.89C312.069 113.494 312.267 112.999 312.366 112.801C312.465 112.504 312.663 112.207 312.762 112.009C313.752 109.535 314.247 106.961 315.138 104.387Z" fill="#22272E"/>
<path d="M320.681 125.769C320.681 125.769 321.374 124.285 323.057 125.571C324.74 126.858 325.433 126.363 326.324 125.275C327.215 124.186 327.611 126.264 329.591 125.473" stroke="#22272E" stroke-width="1.8" stroke-miterlimit="10" stroke-linecap="round" stroke-linejoin="round"/>
<path d="M329.195 101.912C328.7 101.318 328.601 99.1403 330.581 98.2493C332.56 97.3584 335.827 98.8433 337.708 100.823C339.589 102.803 338.599 103.793 336.322 102.803C333.946 101.912 333.055 101.615 331.076 102.308C330.284 102.605 329.492 102.407 329.195 101.912Z" fill="#22272E"/>
<path d="M315.137 100.922C315.533 100.427 315.83 98.5464 314.444 97.5565C313.058 96.5666 310.782 97.5565 309.594 99.1404C308.505 100.526 309 101.318 310.485 100.922C311.969 100.427 312.563 100.328 313.85 101.12C314.345 101.417 314.84 101.219 315.137 100.922Z" fill="#22272E"/>
<path d="M354.735 112.207C354.339 112.009 353.943 111.811 353.646 111.811C353.349 111.811 353.25 111.91 353.151 112.108C352.953 112.603 352.755 113.197 352.755 113.989C352.656 114.682 352.656 115.672 352.062 116.662C351.765 117.157 351.27 117.454 350.775 117.553C350.577 117.652 350.28 117.652 350.082 117.652C349.884 117.652 349.587 117.553 349.389 117.553C350.181 117.058 350.775 116.563 350.775 116.068C350.874 115.573 350.874 114.781 350.973 113.89C351.072 112.999 351.27 112.009 352.161 111.218C352.359 111.02 352.755 110.822 353.052 110.822C353.448 110.822 353.745 110.921 353.943 111.02C354.339 111.416 354.636 111.811 354.735 112.207Z" fill="#22272E"/>
<path d="M312.563 109.535C313.355 109.634 314.147 109.04 314.147 108.248L314.246 107.357C314.345 106.565 313.751 105.773 312.959 105.773C312.167 105.674 311.375 106.268 311.375 107.06L311.276 107.951C311.078 108.644 311.672 109.436 312.563 109.535Z" fill="#22272E"/>
<path d="M330.284 111.218C331.076 111.317 331.867 110.723 331.867 109.931L331.966 109.04C332.065 108.248 331.471 107.456 330.68 107.456C329.888 107.357 329.096 107.951 329.096 108.743L328.997 109.634C328.898 110.327 329.492 111.119 330.284 111.218Z" fill="#22272E"/>
<path d="M381.364 149.924C383.641 149.825 385.819 150.815 387.502 152.399C389.482 154.28 393.639 158.24 401.757 165.862C414.824 178.236 416.606 180.612 416.606 180.612C416.606 180.612 428.089 189.621 429.277 200.807C430.465 211.993 422.941 227.04 403.341 214.468C383.74 201.896 374.237 193.481 370.277 184.968C366.713 177.345 368.792 150.221 381.364 149.924Z" fill="#6DAFA7"/>
<path d="M410.765 191.403C410.765 191.403 415.22 181.107 425.515 171.307C435.81 161.507 447.986 149.429 450.263 147.054C452.54 144.579 458.084 139.233 465.607 145.074C473.23 150.914 468.775 161.111 468.775 161.111C468.775 161.111 455.609 182.295 444.72 200.312C433.83 218.329 422.743 224.268 408.686 217.438C394.53 210.508 410.765 191.403 410.765 191.403Z" fill="#6DAFA7"/>
<path d="M450.263 148.538C450.263 148.538 455.906 140.916 458.183 138.243C460.459 135.57 464.617 131.511 470.062 133.095C475.605 134.679 478.377 131.313 482.535 135.669C486.693 140.025 489.564 148.043 492.236 151.013C494.909 153.983 494.216 154.775 498.473 154.676C502.73 154.577 506.194 155.567 504.413 157.943C502.631 160.319 491.048 160.913 489.465 160.715C487.881 160.517 480.456 161.506 478.575 160.616C476.694 159.725 476.991 160.517 475.407 159.626C473.824 158.735 469.765 156.755 469.765 156.755C469.765 156.755 468.478 159.329 466.795 161.111C465.112 162.892 457.787 162.595 453.035 157.052C448.976 152.3 450.263 148.538 450.263 148.538Z" fill="#B28D93"/>
<path d="M492.237 151.112C494.909 154.082 494.217 154.874 498.473 154.775C502.73 154.676 506.195 155.666 504.413 158.042C502.631 160.418 491.049 161.012 489.465 160.814" stroke="#896068" stroke-width="1.8" stroke-miterlimit="10" stroke-linecap="round" stroke-linejoin="round"/>
<path d="M475.804 157.547C476.002 152.3 477.685 148.142 479.268 148.736C480.951 149.33 481.743 160.517 477.982 163.09C474.121 165.664 464.122 151.805 462.143 150.914" fill="#B28D93"/>
<path d="M477.486 162.2C477.486 162.2 479.565 166.258 482.634 164.278C485.703 162.398 488.772 153.191 489.366 151.211C490.058 149.231 486.198 148.439 483.723 153.29C481.347 158.141 479.466 158.834 479.466 158.834" fill="#B28D93"/>
<path d="M483.426 162.596C483.426 162.596 484.812 165.169 487.88 164.377C490.949 163.585 494.909 157.448 496.79 155.468C498.671 153.488 496.295 150.914 493.028 153.29C489.761 155.666 487.386 157.943 485.802 158.438" fill="#B28D93"/>
<path d="M481.149 134.58C481.149 134.58 483.525 135.768 486.594 139.926C489.762 144.084 495.602 144.678 496.295 146.855C496.988 149.033 490.752 149.924 485.802 147.548C480.951 145.074 478.971 135.075 481.149 134.58Z" fill="#B28D93"/>
<path d="M444.027 153.29C444.027 153.29 442.542 160.022 448.679 165.466C456.203 172.198 464.122 168.436 464.122 168.436" stroke="#22272E" stroke-width="1.8" stroke-miterlimit="10" stroke-linecap="round" stroke-linejoin="round"/>
<path d="M408.587 217.339C408.587 217.339 406.31 213.973 413.834 212.29C421.357 210.607 434.127 209.716 432.84 214.864" stroke="#22272E" stroke-width="1.8" stroke-miterlimit="10" stroke-linecap="round" stroke-linejoin="round"/>
<path d="M475.804 157.547C476.002 152.3 477.685 148.142 479.268 148.736C480.951 149.33 481.743 160.517 477.982 163.09C474.121 165.664 464.122 151.805 462.143 150.914" stroke="#896068" stroke-width="1.8" stroke-miterlimit="10" stroke-linecap="round" stroke-linejoin="round"/>
<path d="M482.634 164.278C485.703 162.398 488.772 153.191 489.366 151.211C490.059 149.231 486.198 148.439 483.723 153.29C482.337 156.161 481.05 157.547 480.357 158.24" stroke="#896068" stroke-width="1.8" stroke-miterlimit="10" stroke-linecap="round" stroke-linejoin="round"/>
<path d="M484.219 163.486C484.912 164.08 486.1 164.773 487.882 164.278C490.95 163.486 494.91 157.349 496.791 155.369C498.672 153.389 496.296 150.815 493.029 153.191C490.455 154.973 488.476 156.854 486.991 157.745" stroke="#896068" stroke-width="1.8" stroke-miterlimit="10" stroke-linecap="round" stroke-linejoin="round"/>
<path d="M490.752 148.934C490.752 148.934 488.079 144.381 487.089 143.094" stroke="#896068" stroke-width="1.8" stroke-miterlimit="10" stroke-linecap="round" stroke-linejoin="round"/>
<path d="M417.101 180.909C417.101 180.909 411.557 187.344 410.369 195.065" stroke="#22272E" stroke-width="1.8" stroke-miterlimit="10" stroke-linecap="round" stroke-linejoin="round"/>
<path d="M113.785 209.815H79.5328C78.2459 209.815 76.86 208.726 76.563 207.439L71.6133 186.947C71.3164 185.661 72.1083 184.572 73.4942 184.572H107.746C109.033 184.572 110.419 185.661 110.716 186.947L115.665 207.439C115.962 208.726 115.17 209.815 113.785 209.815Z" fill="#6DAFA7"/>
<path d="M72.1084 185.067L91.5111 195.956C92.798 196.748 94.2829 196.748 95.2729 195.956L109.429 185.067" stroke="#22272E" stroke-width="1.8" stroke-miterlimit="10" stroke-linecap="round" stroke-linejoin="round"/>
<path d="M583.21 211.696L505.203 207.043C503.323 206.944 502.036 205.063 502.63 203.281L524.408 134.085C525.002 132.303 526.586 131.016 528.467 130.818L609.839 124.879C611.918 124.681 613.403 126.661 612.809 128.64L587.863 208.429C587.269 210.508 585.289 211.894 583.21 211.696Z" fill="#63737A"/>
<path d="M580.34 209.914L502.333 205.261C500.452 205.162 499.166 203.282 499.759 201.5L521.538 132.303C522.132 130.521 523.716 129.235 525.597 129.037L606.969 123.097C609.048 122.899 610.533 124.879 609.939 126.859L584.993 206.647C584.399 208.726 582.419 210.112 580.34 209.914Z" fill="#22272E"/>
<path d="M540.347 142.401L526.587 143.094C526.092 143.094 525.795 142.698 525.894 142.203L526.884 139.035C527.082 138.54 527.478 138.243 527.973 138.243L541.832 137.451C542.327 137.451 542.624 137.847 542.525 138.342L541.436 141.609C541.238 142.005 540.842 142.302 540.347 142.401Z" fill="#FFE779"/>
<path d="M511.639 196.154C510.253 196.055 509.263 194.768 509.659 193.382L516.193 172.792C516.49 171.901 517.282 171.307 518.173 171.307C519.559 171.307 520.648 172.693 520.153 174.079L513.619 194.669C513.52 195.56 512.629 196.253 511.639 196.154Z" fill="#FFE779"/>
<path d="M521.44 196.55C519.955 196.451 518.965 195.065 519.46 193.679L529.953 160.319C530.25 159.428 531.042 158.834 532.032 158.735C533.517 158.735 534.606 160.121 534.21 161.605L523.717 194.966C523.321 196.055 522.43 196.649 521.44 196.55Z" fill="#63737A"/>
<path d="M531.537 197.045C530.052 196.946 529.062 195.56 529.458 194.075L533.814 180.315C534.111 179.325 535.002 178.731 535.992 178.731C537.477 178.731 538.566 180.216 538.17 181.701L533.814 195.461C533.517 196.451 532.527 197.045 531.537 197.045Z" fill="#FFE779"/>
<path d="M542.031 197.441C540.447 197.342 539.457 195.857 539.853 194.372L552.227 154.973C552.524 153.983 553.415 153.389 554.405 153.29C555.989 153.29 557.177 154.775 556.682 156.359L544.308 195.758C544.011 196.847 543.021 197.54 542.031 197.441Z" fill="#6DAFA7"/>
<path d="M552.821 197.936C551.237 197.837 550.148 196.253 550.544 194.768L558.661 168.832C558.958 167.842 559.948 167.149 560.938 167.149C562.621 167.149 563.809 168.733 563.314 170.317L555.196 196.253C554.899 197.243 553.909 197.936 552.821 197.936Z" fill="#63737A"/>
<path d="M564.106 198.431C562.423 198.332 561.334 196.748 561.829 195.164L563.512 189.62C563.809 188.532 564.898 187.839 565.987 187.839C567.67 187.839 568.858 189.521 568.363 191.105L566.68 196.649C566.284 197.738 565.195 198.431 564.106 198.431Z" fill="#F4C2C9"/>
<path d="M575.688 198.926C574.005 198.827 572.817 197.144 573.312 195.56L581.726 168.832C582.023 167.743 583.112 166.951 584.201 166.951C585.983 166.951 587.27 168.634 586.775 170.317L578.361 197.045C577.965 198.233 576.876 198.926 575.688 198.926Z" fill="#FFE779"/>
<path d="M586.775 137.451C586.973 136.758 586.676 136.164 586.181 136.164C585.587 136.164 584.993 136.758 584.696 137.55C584.498 138.243 584.795 138.837 585.29 138.837C585.884 138.738 586.577 138.144 586.775 137.451Z" fill="#63737A"/>
<path d="M591.922 137.154C592.12 136.461 591.823 135.867 591.229 135.867C590.635 135.867 589.942 136.56 589.744 137.253C589.546 137.946 589.843 138.54 590.437 138.54C591.031 138.441 591.724 137.847 591.922 137.154Z" fill="#63737A"/>
<path d="M597.17 136.857C597.368 136.164 597.071 135.57 596.477 135.57C595.883 135.57 595.19 136.263 594.992 136.956C594.794 137.649 595.091 138.243 595.685 138.243C596.279 138.243 596.972 137.55 597.17 136.857Z" fill="#63737A"/>
<path d="M289.004 61.6218C289.004 61.6218 281.876 61.9188 280.094 55.3852C278.312 48.8516 285.044 45.8818 285.044 52.0194C285.044 58.157 275.441 60.8298 271.482 55.6822C267.423 50.5345 272.175 46.5748 273.462 49.5446C274.848 52.5144 271.68 58.751 266.037 56.8701" stroke="#6DAFA7" stroke-width="1.8" stroke-miterlimit="10" stroke-linecap="round" stroke-linejoin="round"/>
<path d="M374.138 71.8182C374.138 71.8182 386.314 71.1252 385.522 62.3148C384.73 53.5044 376.81 69.8383 387.403 69.6403C397.896 69.4424 397.401 59.444 394.233 58.7511C391.066 58.0581 391.858 65.7796 397.698 65.2846C403.539 64.7897 404.43 61.2259 404.43 61.2259" stroke="#6DAFA7" stroke-width="1.8" stroke-miterlimit="10" stroke-linecap="round" stroke-linejoin="round"/>
<path d="M333.945 54.6924C333.945 52.8116 332.461 51.3267 330.58 51.3267C328.699 51.3267 327.214 52.8116 327.214 54.6924C327.214 56.5733 328.699 58.0582 330.58 58.0582C332.461 58.0582 333.945 56.5733 333.945 54.6924Z" fill="#6DAFA7"/>
<path d="M350.181 18.1638C350.576 23.9054 348.498 29.1521 345.033 32.9138C341.271 36.9726 339.192 42.3182 339.192 47.8618V51.3266C339.192 53.2075 337.608 54.7914 335.727 54.7914H325.63C323.749 54.7914 322.165 53.2075 322.165 51.3266V47.8618C322.165 42.3182 320.087 36.9726 316.325 33.0128C313.058 29.5481 311.078 24.7964 311.078 19.6487C311.078 8.36347 320.68 -0.743924 332.065 0.0480229C341.667 0.641983 349.488 8.46246 350.181 18.1638Z" fill="#FFE779"/>
<path d="M322.066 47.8618H339.093" stroke="#22272E" stroke-width="1.8" stroke-miterlimit="10" stroke-linecap="round" stroke-linejoin="round"/>
<path d="M322.066 51.2278H339.093" stroke="#22272E" stroke-width="1.8" stroke-miterlimit="10" stroke-linecap="round" stroke-linejoin="round"/>
<path d="M328.798 47.8619V20.7377C328.798 18.2628 326.026 16.7779 323.947 18.1638C322.363 19.2528 322.165 21.6286 323.65 23.0145L324.838 24.1034" stroke="#22272E" stroke-width="1.8" stroke-miterlimit="10" stroke-linecap="round" stroke-linejoin="round"/>
<path d="M332.361 47.8619V20.7377C332.361 18.2628 335.133 16.7779 337.212 18.1638C338.796 19.2528 338.994 21.6286 337.509 23.0145L336.321 24.1034" stroke="#22272E" stroke-width="1.8" stroke-miterlimit="10" stroke-linecap="round" stroke-linejoin="round"/>
<path d="M251.188 122.602L242.477 42.8131C242.18 40.4372 240.299 38.4574 237.923 38.1604L124.972 23.4104C122.398 23.1134 120.22 25.2912 120.517 27.8651L131.604 122.998C131.901 125.671 134.178 127.65 136.851 127.65L247.129 127.056C249.604 127.056 251.485 124.978 251.188 122.602Z" fill="#63737A"/>
<path d="M256.237 122.206L247.525 41.8232C247.228 39.3484 245.348 37.4675 242.972 37.1705L129.228 22.3215C126.654 22.0245 124.378 24.2024 124.675 26.7762L135.861 122.602C136.158 125.275 138.435 127.254 141.108 127.254L252.277 126.661C254.653 126.661 256.435 124.582 256.237 122.206Z" fill="#22272E"/>
<path d="M241.882 114.286H151.402L151.105 111.317L170.211 84.3903C172.488 81.1235 176.745 79.8366 180.506 81.4205L189.218 84.9843C193.178 86.5682 197.632 85.0833 199.81 81.5195L203.671 75.1839C205.849 71.6202 210.205 70.1353 214.065 71.6202C215.055 72.0161 216.144 72.2141 217.134 72.2141C219.807 72.2141 222.282 71.0262 223.965 68.8484L235.844 53.3064L241.882 114.286Z" fill="#FFE779"/>
<path d="M151.106 111.317L144.275 52.1185" stroke="#6DAFA7" stroke-width="1.8" stroke-miterlimit="10" stroke-linecap="round" stroke-linejoin="round"/>
<path d="M150.809 108.644L166.351 68.0565C167.935 63.7998 172.687 61.7209 176.943 63.4038L184.962 66.5716C188.229 67.8585 191.99 66.8686 194.267 64.1958L199.613 57.6622C202.583 54.0984 207.829 53.6035 211.294 56.7713C213.967 59.2461 218.026 59.5431 221.094 57.5632L235.547 48.3568" stroke="#6DAFA7" stroke-width="1.8" stroke-miterlimit="10" stroke-linecap="round" stroke-linejoin="round"/>
<path d="M143.583 44.2981L142.989 39.5464C142.89 38.8534 143.484 38.1605 144.276 38.2595L165.757 40.5363C166.45 40.6353 166.945 41.1303 167.044 41.7243L167.737 46.08C167.836 46.6739 167.341 47.1689 166.747 47.0699L144.87 45.486C144.177 45.585 143.682 44.991 143.583 44.2981Z" fill="#6DAFA7"/>
<path d="M493.919 90.2311C471.052 112.406 442.641 116.761 432.346 101.516C423.238 88.0533 431.851 64.0969 450.461 46.773C468.775 29.7462 492.929 22.7176 505.997 31.726C520.747 41.8234 516.391 68.4526 493.919 90.2311Z" fill="#F8AB5D"/>
<path d="M490.653 86.8652C467.785 109.04 439.374 113.395 429.079 98.1504C419.972 84.6873 428.584 60.7309 447.195 43.4071C465.509 26.3802 489.663 19.3517 502.73 28.3601C517.579 38.5564 513.124 65.1856 490.653 86.8652Z" fill="#FFE779"/>
<path d="M481.051 77.2629C467.291 90.4291 450.066 93.6958 443.136 84.8854C436.801 76.768 441.849 61.424 453.927 50.1388C465.905 38.9525 481.447 34.6958 489.465 41.0314C498.078 47.7629 494.613 64.1958 481.051 77.2629Z" fill="#6DAFA7"/>
<path d="M472.24 68.4525C466.796 73.6001 459.866 75.085 456.896 71.8182C454.025 68.6505 455.906 62.2159 461.054 57.3652C466.202 52.5145 472.834 50.9306 476.002 53.8014C479.269 56.6723 477.685 63.3048 472.24 68.4525Z" fill="#F4C2C9"/>
<path d="M437.098 35.1905C435.019 37.1704 431.653 36.9724 429.772 34.8935L412.152 12.422C411.261 11.2341 411.36 9.55123 412.449 8.5613C413.538 7.57136 415.22 7.57136 416.309 8.5613L437.296 27.865C439.375 29.9439 439.276 33.2106 437.098 35.1905Z" fill="#22272E"/>
<path d="M416.21 16.679L410.567 17.471C408.983 17.6689 408.389 19.6488 409.577 20.6387C413.042 23.7075 417.299 25.6874 421.852 26.4793L424.723 26.9743C425.02 27.0733 425.317 26.6773 425.119 26.3804L417.992 17.372C417.497 16.877 416.903 16.58 416.21 16.679Z" fill="#6DAFA7"/>
<path d="M420.368 12.9173L421.655 7.37362C421.952 5.88872 423.931 5.39376 424.921 6.68067C427.693 10.3434 429.376 14.6991 429.772 19.3518L429.97 22.2226C429.97 22.5196 429.574 22.7176 429.376 22.5196L420.962 14.7981C420.368 14.2042 420.17 13.5112 420.368 12.9173Z" fill="#6DAFA7"/>
<path d="M436.306 34.2996L441.949 40.3381" stroke="#22272E" stroke-width="1.8" stroke-miterlimit="10" stroke-linecap="round" stroke-linejoin="round"/>
<path d="M111.014 159.031C111.509 157.25 110.42 155.369 108.539 154.874C106.757 154.379 104.876 155.468 104.381 157.349C103.886 159.13 104.975 161.011 106.856 161.506C108.638 162.001 110.519 160.912 111.014 159.031Z" fill="#22272E"/>
<path d="M115.171 150.914L115.369 150.023C116.161 147.152 114.379 144.182 111.508 143.39C108.637 142.599 105.668 144.38 104.876 147.251L104.678 148.142C104.381 149.132 103.886 150.023 103.193 150.815C102.599 151.409 102.005 152.102 101.411 152.696C100.124 154.082 100.817 156.359 102.599 156.854L107.549 158.141L112.498 159.427C114.28 159.922 116.062 158.239 115.567 156.458C115.369 155.567 115.171 154.676 114.973 153.884C114.874 152.993 114.874 151.904 115.171 150.914Z" fill="#6DAFA7"/>
<path d="M19.2461 114.781C19.2461 114.781 56.2696 106.367 55.6757 86.7662L112.3 91.2209C112.3 91.2209 111.607 115.276 74.6824 127.551C74.5834 127.551 35.283 122.305 19.2461 114.781Z" fill="#FFE779"/>
<path d="M66.6641 113.89L76.6624 115.276" stroke="#22272E" stroke-width="1.8" stroke-miterlimit="10" stroke-linecap="round" stroke-linejoin="round"/>
<path d="M70.8213 109.931L82.4035 111.514" stroke="#22272E" stroke-width="1.8" stroke-miterlimit="10" stroke-linecap="round" stroke-linejoin="round"/>
<path d="M60.9224 100.427C60.9224 100.427 86.4627 103.991 91.0163 104.585" stroke="#22272E" stroke-width="1.8" stroke-miterlimit="10" stroke-linecap="round" stroke-linejoin="round"/>
<path d="M65.4756 106.565C63.7927 108.941 60.4269 112.801 54.9823 115.078C54.7843 115.177 54.4873 115.177 54.1903 115.177C50.3296 114.385 46.3699 113.494 42.6081 112.504C42.0141 112.405 42.0141 111.613 42.5091 111.415C44.9839 110.327 49.8346 108.05 54.0913 104.288C54.3883 103.991 54.7843 103.892 55.0813 103.991C57.1601 104.387 60.7239 104.882 65.0796 105.575C65.4756 105.773 65.7726 106.268 65.4756 106.565Z" fill="#22272E"/>
<path d="M82.3051 95.2795C82.1071 96.3684 81.7111 97.3584 81.5131 97.9523C81.3151 98.3483 81.0182 98.5463 80.6222 98.4473L61.3185 96.3684C60.7245 96.2694 60.4276 95.7745 60.6255 95.1805C60.9225 94.4876 61.1205 93.7946 61.2195 93.0026C61.3185 92.6067 61.7145 92.3097 62.1104 92.3097L81.5131 94.0916C82.0081 94.3886 82.4041 94.7845 82.3051 95.2795Z" fill="#6DAFA7"/>
<path d="M418.388 125.275C414.527 133.689 405.222 139.233 398.886 137.55C393.343 136.065 392.254 129.433 395.817 122.899C399.183 116.563 406.212 111.614 412.151 111.416C418.784 111.317 422.051 117.355 418.388 125.275Z" fill="#F8AB5D"/>
<path d="M416.407 123.592C412.547 132.006 403.241 137.55 396.906 135.867C391.362 134.382 390.273 127.749 393.837 121.216C397.203 114.88 404.231 109.931 410.171 109.733C416.902 109.535 420.07 115.573 416.407 123.592Z" fill="#FFE779"/>
<path d="M413.24 123.295C410.27 129.531 403.44 133.788 398.589 132.699C394.233 131.709 393.243 126.661 396.015 121.414C398.688 116.464 404.232 112.505 408.785 112.505C413.834 112.505 416.111 117.256 413.24 123.295Z" fill="#F8AB5D"/>
<path d="M400.074 128.64L400.47 127.948C400.569 127.651 400.569 127.453 400.371 127.354C399.876 127.156 399.48 126.958 399.282 126.661C399.183 126.562 399.183 126.265 399.381 125.968L399.48 125.869C399.678 125.572 400.074 125.473 400.173 125.671C400.47 125.968 400.965 126.265 401.559 126.364C402.549 126.562 403.638 125.869 404.133 124.978C404.627 124.087 404.33 123.394 403.539 122.8C402.45 122.008 401.955 121.117 402.747 119.731C403.341 118.543 404.528 117.652 405.815 117.355C406.013 117.355 406.31 117.157 406.409 116.86L406.805 116.167C406.904 115.87 407.3 115.672 407.498 115.672C407.696 115.672 407.795 115.87 407.696 116.167L407.399 116.761C407.3 117.058 407.3 117.256 407.597 117.256C407.993 117.355 408.29 117.454 408.587 117.652C408.785 117.751 408.686 118.048 408.488 118.345L408.389 118.444C408.191 118.741 407.795 118.84 407.597 118.741C407.3 118.543 406.904 118.345 406.31 118.345C405.221 118.246 404.429 118.939 404.133 119.632C403.737 120.424 404.034 120.919 404.924 121.612C406.112 122.503 406.409 123.493 405.617 124.978C405.023 126.265 403.737 127.354 402.252 127.552C402.054 127.552 401.757 127.75 401.658 128.047L401.262 128.838C401.064 129.135 400.767 129.333 400.569 129.333C399.975 129.135 399.876 128.937 400.074 128.64Z" fill="#FFE779"/>
<path d="M99.8272 270.201H90.1258L89.6309 287.822H98.9362L99.8272 270.201Z" fill="#6DAFA7"/>
<path d="M89.6309 287.822L83.7903 465.218C83.6913 467.099 85.1762 468.584 87.0571 468.584C88.839 468.584 90.2249 467.198 90.3239 465.515L98.9363 287.822H89.6309V287.822Z" fill="#B8D8C7"/>
<path d="M581.232 270.201H571.629L572.421 287.822H581.826L581.232 270.201Z" fill="#6DAFA7"/>
<path d="M572.422 287.822L581.034 465.515C581.133 467.297 582.519 468.584 584.301 468.584C586.182 468.584 587.667 467.099 587.568 465.218L581.727 287.822H572.422V287.822Z" fill="#B8D8C7"/>
<path d="M125.664 246.146L120.219 412.949C120.12 414.533 121.407 415.82 122.991 415.82C124.476 415.82 125.763 414.632 125.763 413.147L133.88 246.146H125.664V246.146Z" fill="#B8D8C7"/>
<path d="M545.693 246.146L551.138 412.949C551.237 414.533 549.95 415.82 548.366 415.82C546.881 415.82 545.594 414.632 545.594 413.147L537.477 246.146H545.693V246.146Z" fill="#B8D8C7"/>
<path d="M608.653 266.439H62.7041L119.922 239.216H551.533L608.653 266.439Z" fill="white"/>
<path d="M608.653 266.439H62.7041V273.864H608.653V266.439Z" fill="#B8D8C7"/>
<path d="M510.155 240.107C510.155 240.107 505.502 237.83 503.919 233.277C502.335 228.723 505.107 225.654 506.294 225.951C507.383 226.149 509.264 231.99 510.749 231.99C512.234 231.99 511.937 221.892 514.907 220.803C517.778 219.813 517.58 230.802 517.679 231.693C517.877 233.969 521.737 229.02 523.123 227.04C524.806 224.565 530.251 233.475 518.867 240.107C518.867 240.107 514.511 240.998 510.155 240.107Z" fill="#6DAFA7"/>
<path d="M529.359 241.196V241.592C529.26 247.433 528.073 253.273 525.994 258.817C525.598 259.708 524.707 260.401 523.717 260.401H505.898C504.908 260.401 504.017 259.807 503.621 258.817C501.542 253.273 500.354 247.532 500.255 241.592V241.196C500.255 240.107 501.047 239.315 502.136 239.315H527.479C528.567 239.216 529.359 240.107 529.359 241.196Z" fill="#22272E"/>
<path d="M462.44 233.87C454.718 234.662 452.738 255.55 438.087 257.629C438.087 257.629 435.415 257.728 431.059 257.827C418.487 258.223 392.55 258.817 382.057 257.926C383.443 257.926 384.928 257.827 386.611 257.629C391.164 257.035 394.431 254.56 397.104 251.59C403.044 244.661 405.717 234.464 410.963 233.969H462.44V233.87Z" fill="#22272E"/>
<path d="M397.005 251.59C394.332 254.659 391.065 257.035 386.512 257.629C384.928 257.827 383.344 257.926 381.958 257.926C370.871 257.926 367.604 251.788 367.604 251.788C367.604 251.788 385.324 252.58 397.005 251.59Z" fill="#6DAFA7"/>
<path d="M322.166 260.005H250.297V254.659H327.512C327.512 257.629 325.136 260.005 322.166 260.005Z" fill="#22272E"/>
<path d="M265.739 260.005H154.966C151.402 260.005 148.234 257.53 147.343 254.065L129.128 181.503C128.435 178.83 130.514 176.157 133.286 176.157H244.06C247.624 176.157 250.791 178.632 251.682 182.097L269.897 254.659C270.59 257.332 268.61 260.005 265.739 260.005Z" fill="#22272E"/>
<path d="M200.3 224.358C202.921 221.348 201.804 216.085 197.805 212.603C193.806 209.12 188.439 208.737 185.818 211.746C183.197 214.756 184.314 220.019 188.313 223.502C192.313 226.984 197.679 227.368 200.3 224.358Z" fill="#63737A"/>
<path d="M328.204 249.313H304.743C303.654 249.313 302.664 248.422 302.664 247.235C302.664 241.295 307.515 236.444 313.454 236.444H319.394C325.334 236.444 330.184 241.295 330.184 247.235C330.184 248.422 329.293 249.313 328.204 249.313Z" fill="#22272E"/>
<path d="M471.151 251.689C468.973 251.293 465.409 250.204 464.222 246.245C463.034 242.285 472.042 233.672 474.814 233.672C477.586 233.771 482.634 236.444 485.307 240.206C487.881 243.968 483.03 246.344 483.624 248.125C484.218 250.006 478.675 253.174 471.151 251.689Z" fill="white" stroke="#B8D8C7" stroke-width="1.8" stroke-miterlimit="10" stroke-linecap="round" stroke-linejoin="round"/>
<path d="M464.222 246.245C464.222 246.245 468.874 249.61 471.052 248.62C473.23 247.73 474.913 244.859 478.774 245.255C482.634 245.552 481.842 238.919 478.774 237.83C475.705 236.741 473.527 243.671 471.052 243.77C468.676 243.869 467.983 242.285 470.26 240.503" fill="white"/>
<path d="M464.222 246.245C464.222 246.245 468.874 249.61 471.052 248.62C473.23 247.73 474.913 244.859 478.774 245.255C482.634 245.552 481.842 238.919 478.774 237.83C475.705 236.741 473.527 243.671 471.052 243.77C468.676 243.869 467.983 242.285 470.26 240.503" stroke="#B8D8C7" stroke-width="1.8" stroke-miterlimit="10" stroke-linecap="round" stroke-linejoin="round"/>
<path d="M459.569 257.827C459.569 257.827 462.044 254.956 460.955 253.372C459.866 251.788 458.975 251.293 458.48 250.402C457.787 249.017 457.886 246.047 456.302 244.562C454.817 243.176 452.144 245.453 446.205 244.661C441.651 244.067 437.493 251.095 439.077 253.075C440.562 255.055 441.255 255.451 441.255 255.451C441.255 255.451 440.364 257.233 440.859 258.322C441.354 259.411 444.819 260.995 450.065 261.49C455.411 262.084 459.569 257.827 459.569 257.827Z" fill="white" stroke="#B8D8C7" stroke-width="1.8" stroke-miterlimit="10" stroke-linecap="round" stroke-linejoin="round"/>
<path d="M441.255 255.55C441.255 255.55 446.007 259.213 449.372 258.421C452.738 257.629 456.005 251.491 455.807 249.808C455.609 248.126 454.223 247.334 450.857 250.402C447.491 253.471 444.918 252.679 445.215 250.006" fill="white"/>
<path d="M441.255 255.55C441.255 255.55 446.007 259.213 449.372 258.421C452.738 257.629 456.005 251.491 455.807 249.808C455.609 248.126 454.223 247.334 450.857 250.402C447.491 253.471 444.918 252.679 445.215 250.006" stroke="#B8D8C7" stroke-width="1.8" stroke-miterlimit="10" stroke-linecap="round" stroke-linejoin="round"/>
</g>
</svg>
