<svg width="757" height="600" viewBox="0 0 757 600" fill="none" xmlns="http://www.w3.org/2000/svg">
<g opacity="0.9">
<path d="M656.38 490.585L90.2537 474.364C63.907 473.601 42.2418 453.46 39.6289 427.223L12.3025 157.224C9.25408 126.631 32.9878 99.9582 63.6893 99.5227L693.831 90.813C725.622 90.3776 750.553 118.14 746.634 149.712L709.944 444.751C706.569 471.533 683.38 491.456 656.38 490.585Z" fill="#EAF9F3"/>
<mask id="mask0_4_33" style="mask-type:alpha" maskUnits="userSpaceOnUse" x="12" y="90" width="736" height="401">
<path d="M656.38 490.585L90.2537 474.364C63.907 473.601 42.2418 453.46 39.6289 427.223L12.3025 157.224C9.25408 126.631 32.9878 99.9582 63.6893 99.5227L693.831 90.813C725.622 90.3776 750.553 118.14 746.634 149.712L709.944 444.751C706.569 471.533 683.38 491.456 656.38 490.585Z" fill="#EAF9F3"/>
</mask>
<g mask="url(#mask0_4_33)">
<path d="M194.334 539.686H-258.023C-267.059 539.686 -274.353 532.391 -274.353 523.355V266.748C-274.353 257.711 -267.059 250.417 -258.023 250.417H194.334C203.37 250.417 210.664 257.711 210.664 266.748V523.246C210.664 532.283 203.37 539.686 194.334 539.686Z" stroke="#B8D8C7" stroke-width="1.8" stroke-miterlimit="10" stroke-linecap="round" stroke-linejoin="round"/>
<path d="M792.141 522.375H335.865C326.829 522.375 319.535 515.081 319.535 506.045V131.204C319.535 122.168 326.829 114.873 335.865 114.873H792.141C801.178 114.873 808.472 122.168 808.472 131.204V506.045C808.472 515.081 801.178 522.375 792.141 522.375Z" stroke="#B8D8C7" stroke-width="1.8" stroke-miterlimit="10" stroke-linecap="round" stroke-linejoin="round"/>
<path d="M69.3506 250.417H47.2499C44.8548 250.417 42.8951 248.675 42.5685 246.28L40.8266 230.603C40.4999 227.881 42.6774 225.377 45.508 225.377H71.0925C73.9232 225.377 75.9917 227.772 75.774 230.603L74.032 246.28C73.7054 248.675 71.7458 250.417 69.3506 250.417Z" stroke="#B8D8C7" stroke-width="1.8" stroke-miterlimit="10" stroke-linecap="round" stroke-linejoin="round"/>
<path d="M55.633 225.486C55.633 225.486 46.9233 224.615 45.1814 212.857C45.1814 212.857 53.0201 215.143 55.5241 220.695C55.5241 220.695 56.6128 208.284 62.4918 207.087C62.4918 207.087 65.1047 216.341 60.9676 220.913C60.9676 220.913 64.1249 215.687 72.1813 215.796C72.1813 215.796 70.1127 223.199 62.1652 225.377" fill="#B8D8C7"/>
<path d="M190.959 304.526H92.7578C90.2537 304.526 88.1852 302.457 88.1852 299.953V270.123C88.1852 267.619 90.2537 265.55 92.7578 265.55H190.959C193.463 265.55 195.531 267.619 195.531 270.123V299.953C195.531 302.457 193.463 304.526 190.959 304.526Z" stroke="#B8D8C7" stroke-width="1.8" stroke-miterlimit="10" stroke-linecap="round" stroke-linejoin="round"/>
<path d="M153.072 276.111H130.427C129.556 276.111 128.794 275.348 128.794 274.477C128.794 273.606 129.556 272.844 130.427 272.844H153.072C153.943 272.844 154.705 273.606 154.705 274.477C154.705 275.348 154.052 276.111 153.072 276.111Z" fill="#B8D8C7"/>
<path d="M190.959 354.388H92.7578C90.2537 354.388 88.1852 352.32 88.1852 349.816V319.985C88.1852 317.481 90.2537 315.413 92.7578 315.413H190.959C193.463 315.413 195.531 317.481 195.531 319.985V349.816C195.531 352.32 193.463 354.388 190.959 354.388Z" stroke="#B8D8C7" stroke-width="1.8" stroke-miterlimit="10" stroke-linecap="round" stroke-linejoin="round"/>
<path d="M153.072 325.973H130.427C129.556 325.973 128.794 325.211 128.794 324.34C128.794 323.469 129.556 322.707 130.427 322.707H153.072C153.943 322.707 154.705 323.469 154.705 324.34C154.705 325.211 154.052 325.973 153.072 325.973Z" fill="#B8D8C7"/>
<path d="M695.138 389.662H596.937C594.433 389.662 592.364 387.594 592.364 385.09V355.259C592.364 352.755 594.433 350.687 596.937 350.687H695.138C697.642 350.687 699.71 352.755 699.71 355.259V385.09C699.819 387.594 697.751 389.662 695.138 389.662Z" stroke="#B8D8C7" stroke-width="1.8" stroke-miterlimit="10" stroke-linecap="round" stroke-linejoin="round"/>
<path d="M657.36 361.138H634.715C633.844 361.138 633.082 360.376 633.082 359.505C633.082 358.634 633.844 357.872 634.715 357.872H657.36C658.231 357.872 658.993 358.634 658.993 359.505C658.993 360.485 658.231 361.138 657.36 361.138Z" fill="#B8D8C7"/>
<path d="M569.066 389.662H470.865C468.361 389.662 466.292 387.594 466.292 385.09V355.259C466.292 352.755 468.361 350.687 470.865 350.687H569.066C571.57 350.687 573.638 352.755 573.638 355.259V385.09C573.747 387.594 571.679 389.662 569.066 389.662Z" stroke="#B8D8C7" stroke-width="1.8" stroke-miterlimit="10" stroke-linecap="round" stroke-linejoin="round"/>
<path d="M531.288 361.138H508.643C507.772 361.138 507.01 360.376 507.01 359.505C507.01 358.634 507.772 357.872 508.643 357.872H531.288C532.159 357.872 532.921 358.634 532.921 359.505C532.921 360.485 532.159 361.138 531.288 361.138Z" fill="#B8D8C7"/>
<path d="M65.7578 304.526H-32.4433C-34.9473 304.526 -37.0159 302.457 -37.0159 299.953V270.123C-37.0159 267.619 -34.9473 265.55 -32.4433 265.55H65.7578C68.2619 265.55 70.3304 267.619 70.3304 270.123V299.953C70.3304 302.457 68.2619 304.526 65.7578 304.526Z" stroke="#B8D8C7" stroke-width="1.8" stroke-miterlimit="10" stroke-linecap="round" stroke-linejoin="round"/>
<path d="M27.8709 276.111H5.22583C4.35487 276.111 3.59277 275.348 3.59277 274.477C3.59277 273.606 4.35487 272.844 5.22583 272.844H27.8709C28.7418 272.844 29.5039 273.606 29.5039 274.477C29.5039 275.348 28.8507 276.111 27.8709 276.111Z" fill="#B8D8C7"/>
<path d="M65.7578 354.388H-32.4433C-34.9473 354.388 -37.0159 352.32 -37.0159 349.816V319.985C-37.0159 317.481 -34.9473 315.413 -32.4433 315.413H65.7578C68.2619 315.413 70.3304 317.481 70.3304 319.985V349.816C70.3304 352.32 68.2619 354.388 65.7578 354.388Z" stroke="#B8D8C7" stroke-width="1.8" stroke-miterlimit="10" stroke-linecap="round" stroke-linejoin="round"/>
<path d="M27.8709 325.973H5.22583C4.35487 325.973 3.59277 325.211 3.59277 324.34C3.59277 323.469 4.35487 322.707 5.22583 322.707H27.8709C28.7418 322.707 29.5039 323.469 29.5039 324.34C29.5039 325.211 28.8507 325.973 27.8709 325.973Z" fill="#B8D8C7"/>
<path d="M838.193 229.079H342.833C340.111 229.079 337.825 226.792 337.825 224.07V137.301C337.825 134.579 340.111 132.293 342.833 132.293H838.193C840.915 132.293 843.202 134.579 843.202 137.301V224.07C843.202 226.792 840.915 229.079 838.193 229.079Z" stroke="#B8D8C7" stroke-width="1.8" stroke-miterlimit="10" stroke-linecap="round" stroke-linejoin="round"/>
<path d="M838.193 336.751H342.833C340.111 336.751 337.825 334.465 337.825 331.743V244.974C337.825 242.252 340.111 239.966 342.833 239.966H838.193C840.915 239.966 843.202 242.252 843.202 244.974V331.743C843.202 334.465 840.915 336.751 838.193 336.751Z" stroke="#B8D8C7" stroke-width="1.8" stroke-miterlimit="10" stroke-linecap="round" stroke-linejoin="round"/>
<path d="M381.918 174.317H371.139V229.079H381.918V174.317Z" stroke="#B8D8C7" stroke-width="1.8" stroke-miterlimit="10" stroke-linecap="round" stroke-linejoin="round"/>
<path d="M393.022 189.232H381.809V229.079H393.022V189.232Z" stroke="#B8D8C7" stroke-width="1.8" stroke-miterlimit="10" stroke-linecap="round" stroke-linejoin="round"/>
<path d="M706.787 281.881H696.009V336.642H706.787V281.881Z" stroke="#B8D8C7" stroke-width="1.8" stroke-miterlimit="10" stroke-linecap="round" stroke-linejoin="round"/>
<path d="M717.892 296.796H706.678V336.642H717.892V296.796Z" stroke="#B8D8C7" stroke-width="1.8" stroke-miterlimit="10" stroke-linecap="round" stroke-linejoin="round"/>
<path d="M684.795 281.881H674.017V336.642H684.795V281.881Z" stroke="#B8D8C7" stroke-width="1.8" stroke-miterlimit="10" stroke-linecap="round" stroke-linejoin="round"/>
<path d="M674.162 283.908L663.884 280.662L647.395 332.883L657.673 336.128L674.162 283.908Z" stroke="#B8D8C7" stroke-width="1.8" stroke-miterlimit="10" stroke-linecap="round" stroke-linejoin="round"/>
<path d="M696.009 296.796H684.795V336.642H696.009V296.796Z" stroke="#B8D8C7" stroke-width="1.8" stroke-miterlimit="10" stroke-linecap="round" stroke-linejoin="round"/>
<path d="M561.336 174.317H550.558V229.079H561.336V174.317Z" stroke="#B8D8C7" stroke-width="1.8" stroke-miterlimit="10" stroke-linecap="round" stroke-linejoin="round"/>
<path d="M572.55 189.232H561.336V229.079H572.55V189.232Z" stroke="#B8D8C7" stroke-width="1.8" stroke-miterlimit="10" stroke-linecap="round" stroke-linejoin="round"/>
<path d="M454.97 174.317H444.191V229.079H454.97V174.317Z" stroke="#B8D8C7" stroke-width="1.8" stroke-miterlimit="10" stroke-linecap="round" stroke-linejoin="round"/>
<path d="M444.359 176.256L434.081 173.01L417.592 225.231L427.87 228.477L444.359 176.256Z" stroke="#B8D8C7" stroke-width="1.8" stroke-miterlimit="10" stroke-linecap="round" stroke-linejoin="round"/>
<path d="M466.074 189.232H454.861V229.079H466.074V189.232Z" stroke="#B8D8C7" stroke-width="1.8" stroke-miterlimit="10" stroke-linecap="round" stroke-linejoin="round"/>
<path d="M706.569 181.393L707.767 165.172C707.876 164.083 707.005 163.212 705.916 163.212H701.235H696.553C695.464 163.212 694.702 164.083 694.702 165.172L695.9 181.393C695.9 181.393 686.102 187.708 686.21 192.933C686.319 196.962 688.714 216.232 689.803 224.724C690.13 227.119 692.089 228.861 694.485 228.861H701.235H707.985C710.38 228.861 712.339 227.119 712.666 224.724C713.755 216.232 716.15 196.962 716.259 192.933C716.368 187.708 706.569 181.393 706.569 181.393Z" fill="#B8D8C7"/>
<path d="M663.239 181.393L664.436 165.172C664.545 164.083 663.674 163.212 662.586 163.212H657.904H653.223C652.134 163.212 651.372 164.083 651.372 165.172L652.569 181.393C652.569 181.393 642.771 187.708 642.88 192.933C642.989 196.962 645.384 216.232 646.473 224.724C646.799 227.119 648.759 228.861 651.154 228.861H657.904H664.654C667.049 228.861 669.009 227.119 669.336 224.724C670.424 216.232 672.819 196.962 672.928 192.933C673.037 187.708 663.239 181.393 663.239 181.393Z" fill="#B8D8C7"/>
<path d="M10.7782 439.525H1051.36" stroke="#B8D8C7" stroke-width="1.8" stroke-miterlimit="10" stroke-linecap="round" stroke-linejoin="round"/>
</g>
<path d="M119.866 345.788L106.04 539.141C105.931 540.775 107.237 542.19 108.87 542.19C110.395 542.19 111.592 541.101 111.701 539.577L128.358 345.788H119.866Z" fill="#B8D8C7"/>
<path d="M679.569 345.788L693.396 539.141C693.505 540.775 692.198 542.19 690.565 542.19C689.041 542.19 687.843 541.101 687.735 539.577L671.077 345.788H679.569Z" fill="#B8D8C7"/>
<path d="M240.93 106.49C240.93 106.49 250.62 126.196 257.587 143.942C264.555 161.688 265.753 178.127 259.003 181.611C249.531 186.51 238.971 186.837 226.777 163.756C214.584 140.676 223.729 88.5268 240.93 106.49Z" fill="#22272E"/>
<path d="M188.781 466.416C188.89 467.722 184.971 489.823 185.189 491.456C185.515 493.089 168.531 497.335 160.366 490.041C160.366 490.041 161.564 461.19 161.564 456.835C161.564 452.589 188.019 454.223 188.781 466.416Z" fill="#F4C2C9"/>
<path d="M185.515 487.537C185.515 487.537 187.366 495.702 190.088 500.71C192.809 505.718 207.833 519.762 206.2 524.553C204.567 529.343 190.741 529.779 180.072 529.343C169.402 528.908 164.612 525.206 160.366 517.585C156.011 509.964 158.951 504.847 159.495 490.041C159.495 490.041 159.822 487.537 160.475 487.101C160.475 487.101 162.652 490.912 165.156 491.238C167.66 491.456 170.164 485.468 176.261 484.815C182.358 484.271 183.12 490.259 183.773 490.259C184.535 490.259 185.297 489.279 185.515 487.537Z" fill="#6DAFA7"/>
<path d="M195.422 510.944C195.422 510.944 187.801 507.678 173.648 513.013" stroke="#22272E" stroke-width="1.8" stroke-miterlimit="10" stroke-linecap="round" stroke-linejoin="round"/>
<path d="M192.701 504.956C192.701 504.956 185.08 501.69 170.927 507.025" stroke="#22272E" stroke-width="1.8" stroke-miterlimit="10" stroke-linecap="round" stroke-linejoin="round"/>
<path d="M243.217 462.606C243.325 463.912 239.406 486.013 239.624 487.646C239.95 489.279 222.967 493.525 214.801 486.23C214.801 486.23 215.999 457.38 215.999 453.025C215.999 448.779 242.563 450.412 243.217 462.606Z" fill="#F4C2C9"/>
<path d="M240.059 483.618C240.059 483.618 241.91 491.783 244.632 496.791C247.354 501.799 262.378 515.843 260.745 520.633C259.112 525.424 245.285 525.859 234.616 525.424C223.947 524.988 219.156 521.287 214.91 513.666C210.555 506.045 213.495 500.928 214.039 486.122C214.039 486.122 214.366 483.617 215.019 483.182C215.019 483.182 217.197 486.992 219.701 487.319C222.205 487.537 224.709 481.549 230.805 480.896C236.902 480.351 237.664 486.339 238.317 486.339C239.08 486.448 239.842 485.468 240.059 483.618Z" fill="#6DAFA7"/>
<path d="M249.858 507.134C249.858 507.134 242.237 503.867 228.083 509.202" stroke="#22272E" stroke-width="1.8" stroke-miterlimit="10" stroke-linecap="round" stroke-linejoin="round"/>
<path d="M247.245 501.146C247.245 501.146 239.624 497.88 225.471 503.214" stroke="#22272E" stroke-width="1.8" stroke-miterlimit="10" stroke-linecap="round" stroke-linejoin="round"/>
<path d="M140.116 227.663C140.116 227.663 136.85 246.715 146.213 291.461C149.044 305.07 151.33 322.816 152.963 341.433C156.773 383.892 153.507 427.223 151.548 444.315C148.717 468.811 161.237 473.493 174.737 474.581C188.237 475.67 193.245 469.464 193.898 462.606C194.551 455.747 202.608 364.295 205.656 343.61C208.813 322.925 209.031 294.618 208.051 290.481C207.071 286.344 218.829 287.215 213.93 236.046C209.14 184.659 144.036 214.054 140.116 227.663Z" fill="#FFE779"/>
<path d="M233.854 230.167C233.854 230.167 250.184 300.062 252.144 321.836C254.103 343.61 250.075 450.412 250.184 456.835C250.402 463.259 244.414 469.029 229.825 469.355C215.237 469.682 209.358 459.993 209.467 454.767C209.793 437.348 210.011 367.997 208.922 357.328C207.834 346.659 191.938 294.183 188.781 289.175C185.624 284.058 178.656 246.498 192.374 239.965C206.092 233.433 227.648 223.635 233.854 230.167Z" fill="#FFE779"/>
<path d="M213.277 90.7041C213.277 90.7041 185.406 89.7243 172.451 87.9823C159.495 86.2404 135.326 86.1315 125.745 105.619C116.165 125.107 145.886 134.688 145.124 148.514C144.471 162.232 142.403 185.748 142.403 185.748C142.403 185.748 139.681 211.986 136.632 221.893C133.584 231.8 139.354 236.808 142.076 237.679C144.798 238.55 173.104 244.32 194.552 243.123C215.999 241.925 233.527 237.026 235.051 232.236C236.684 227.445 234.071 213.401 235.051 198.704C236.031 184.006 238.862 158.313 238.862 148.514C238.862 138.716 243.652 113.894 238.862 103.66C234.071 93.4259 222.531 91.0307 213.277 90.7041Z" fill="#6DAFA7"/>
<path d="M176.697 79.1638C176.697 79.1638 172.233 79.8171 170.709 82.7566C169.729 84.6074 168.531 87.9824 168.64 91.4662C168.749 94.9501 173.975 104.531 189.108 106.273C204.35 108.015 209.684 100.611 210.338 97.7807C210.991 94.9501 209.902 87.3291 208.813 86.0227C207.834 84.6074 206.201 83.1921 200.757 82.5388C195.422 81.6679 178.439 78.5106 176.697 79.1638Z" fill="#22272E"/>
<path d="M198.58 145.357C198.58 145.357 203.043 140.676 205.33 137.192C207.616 133.708 210.664 129.897 213.168 128.482C215.672 126.958 220.898 126.087 222.313 125.325C223.838 124.563 225.362 127.285 222.313 129.789C219.265 132.293 220.571 139.587 216.325 143.506C211.971 147.426 200.104 149.821 198.58 145.357Z" fill="#B28D93"/>
<path d="M230.261 80.9057L285.241 77.313C286.874 77.2042 288.18 78.6195 287.962 80.2525L274.462 163.212C274.136 165.063 272.72 166.478 270.87 166.696L218.285 173.881C216.652 174.099 215.237 172.684 215.346 171.05L226.451 84.6073C226.559 82.5388 228.192 81.0146 230.261 80.9057Z" fill="#FFE779"/>
<path d="M269.128 81.1235L248.334 82.2122C247.571 82.2122 246.918 81.559 247.027 80.7969L247.354 78.6195C247.463 77.7485 248.225 77.0953 248.987 77.0953L269.781 76.0066C270.543 76.0066 271.196 76.6598 271.087 77.4219L270.761 79.5993C270.652 80.4703 269.89 81.0146 269.128 81.1235Z" fill="#6DAFA7"/>
<path d="M147.846 165.172C147.846 165.172 154.705 137.627 156.447 127.067C158.189 116.506 151.548 104.748 141.314 102.136C129.338 99.1961 125.636 105.511 125.636 105.511C125.636 105.511 120.846 113.894 116.056 140.24C111.265 166.587 108.544 191.083 125.636 197.071C142.729 203.058 177.785 183.571 188.999 175.188C200.213 166.913 204.35 163.321 206.527 162.776C208.705 162.232 217.305 164.518 221.878 159.401C226.45 154.285 230.37 150.256 230.805 150.256C231.241 150.256 242.128 151.889 243.979 150.474C246.047 148.841 242.999 147.208 240.821 146.881C238.753 146.555 232.438 144.486 232.438 144.486C232.438 144.486 237.337 142.962 240.821 141.656C244.305 140.24 247.898 139.587 247.68 137.736C247.462 135.777 245.285 136.103 243.108 135.994C240.93 135.885 237.991 136.539 237.991 136.539C237.991 136.539 243.979 134.906 245.503 133.164C247.136 131.313 245.72 129.898 242.563 130.224C240.059 130.442 236.575 131.313 236.575 131.313C236.575 131.313 242.672 130.769 242.237 128.047C241.91 126.196 236.466 127.176 232.874 127.611C229.281 128.047 224.708 128.918 220.789 129.898C218.176 130.551 215.781 131.313 214.148 132.075C210.338 133.926 200.757 143.071 199.233 144.922C197.709 146.772 178.547 149.821 162.87 153.305C147.193 156.68 138.048 159.619 133.257 164.083L147.846 165.172Z" fill="#B28D93"/>
<path d="M233.092 127.502C229.499 127.938 224.926 128.809 221.007 129.789C218.394 130.442 215.999 131.204 214.366 131.966" stroke="#896068" stroke-width="1.8" stroke-miterlimit="10" stroke-linecap="round" stroke-linejoin="round"/>
<path d="M202.499 165.172C199.777 167.131 195.64 170.397 189.108 175.188C177.894 183.462 142.838 202.95 125.745 197.071C108.761 191.083 111.483 166.587 116.165 140.24C120.955 113.894 125.745 105.511 125.745 105.511C125.745 105.511 129.447 99.1961 141.423 102.136C151.547 104.64 158.297 116.398 156.556 127.067C155.467 133.708 152.31 147.208 150.132 156.244C153.943 155.155 158.297 154.176 163.305 153.087C174.41 150.692 187.366 148.406 194.442 146.664C194.334 146.99 192.918 152.869 195.64 158.422C198.144 164.083 202.499 165.172 202.499 165.172Z" fill="#22272E"/>
<path d="M115.076 186.728C115.076 186.728 114.858 180.849 122.044 181.611C129.12 182.373 147.846 189.123 142.511 197.071" stroke="#63737A" stroke-width="1.8" stroke-miterlimit="10" stroke-linecap="round" stroke-linejoin="round"/>
<path d="M185.733 148.623C185.733 148.623 184.1 154.938 187.039 161.361C189.979 167.676 195.313 170.724 195.313 170.724" stroke="#63737A" stroke-width="1.8" stroke-miterlimit="10" stroke-linecap="round" stroke-linejoin="round"/>
<path d="M175.826 62.0713C175.826 62.0713 175.499 76.0067 174.628 84.7163C173.757 93.4259 189.979 97.0187 197.818 95.4945C205.656 93.9703 206.854 91.5751 206.854 91.5751C206.854 91.5751 206.201 79.8171 206.854 75.5712C207.507 71.3252 175.935 57.4987 175.826 62.0713Z" fill="#B28D93"/>
<path d="M206.636 88.4179C206.527 86.676 206.527 84.3897 206.527 82.1034C199.886 82.43 194.007 76.3333 189.217 71.3253C187.91 81.7768 196.947 88.5268 206.636 88.4179Z" fill="#896068"/>
<path d="M219.483 43.5633C219.483 43.5633 224.926 40.7326 226.559 31.8052C228.192 22.769 226.233 9.59569 220.136 8.0715C213.93 6.43844 218.285 25.273 214.148 28.7569C210.011 32.1319 219.483 38.6641 219.483 43.5633Z" fill="#22272E"/>
<path d="M219.265 28.2125C219.265 28.2125 221.116 35.7245 220.463 46.7204C219.809 57.8252 221.987 76.5509 209.902 81.9945C197.817 87.438 181.814 81.7767 175.281 63.922C168.749 46.0672 168.64 28.3213 178.656 20.7004C188.781 12.9706 215.672 14.0593 219.265 28.2125Z" fill="#B28D93"/>
<path d="M176.588 49.66C176.588 49.66 180.289 48.4624 180.398 41.8213C180.398 35.0713 183.991 29.5189 191.176 31.4786C198.362 33.4383 208.378 38.9907 214.257 38.8818C221.225 38.6641 223.402 31.152 223.946 21.898C224.491 12.5352 221.442 6.8739 217.85 7.85373C214.257 8.83357 211.208 11.8819 206.745 6.22068C200.648 -1.40025 195.204 -1.18251 190.85 2.41021C183.229 8.83357 184.971 12.2086 178.003 9.48679C173.975 7.85373 171.144 8.28922 169.184 15.8013C167.225 23.3133 167.987 25.3819 163.305 24.7287C158.515 24.0754 161.563 48.8979 169.184 54.4503C169.293 54.4503 175.172 49.1156 176.588 49.66Z" fill="#22272E"/>
<path d="M214.039 51.5108C214.475 52.7084 214.692 53.9059 215.019 54.9947C215.346 56.0834 215.672 57.2809 215.999 58.1519C216.217 58.6962 216.543 59.4583 216.543 60.2204C216.543 60.9825 216.434 61.8535 215.89 62.3978C214.91 63.5954 213.495 63.922 212.188 63.8132C213.277 63.1599 214.257 62.3979 214.584 61.6358C214.91 60.8737 214.692 60.0027 214.148 59.0229C213.604 57.7164 213.386 56.5188 213.386 55.2124C213.495 53.9059 213.713 52.7084 214.039 51.5108Z" fill="#22272E"/>
<path d="M203.479 42.0391C204.459 42.148 205.221 41.277 204.894 40.2972C204.568 39.3174 204.35 38.4464 203.261 38.2287C200.975 37.6843 196.076 38.1198 193.136 40.2972C190.197 42.4746 193.027 42.9101 196.729 42.148C199.342 41.7125 201.737 41.8214 203.479 42.0391Z" fill="#22272E"/>
<path d="M198.471 63.9221C204.423 63.9221 209.249 58.9015 209.249 52.7084C209.249 46.5153 204.423 41.4948 198.471 41.4948C192.518 41.4948 187.693 46.5153 187.693 52.7084C187.693 58.9015 192.518 63.9221 198.471 63.9221Z" stroke="#22272E" stroke-width="1.8" stroke-miterlimit="10" stroke-linecap="round" stroke-linejoin="round"/>
<path d="M221.007 62.9422C224.855 62.9422 227.975 58.3603 227.975 52.7084C227.975 47.0564 224.855 42.4745 221.007 42.4745C217.159 42.4745 214.039 47.0564 214.039 52.7084C214.039 58.3603 217.159 62.9422 221.007 62.9422Z" stroke="#22272E" stroke-width="1.8" stroke-miterlimit="10" stroke-linecap="round" stroke-linejoin="round"/>
<path d="M214.257 50.4222C214.257 50.4222 212.842 48.4625 209.031 50.4222" stroke="#22272E" stroke-width="1.8" stroke-miterlimit="10" stroke-linecap="round" stroke-linejoin="round"/>
<path d="M188.128 49.5511L175.172 48.5713" stroke="#22272E" stroke-width="1.8" stroke-miterlimit="10" stroke-linecap="round" stroke-linejoin="round"/>
<path d="M205.003 71.543C205.003 71.543 200.104 71.2164 197.6 66.4261" stroke="#22272E" stroke-width="1.8" stroke-miterlimit="10" stroke-linecap="round" stroke-linejoin="round"/>
<path d="M200.104 56.8454C201.084 56.9543 201.955 56.1922 202.063 55.1035L202.172 54.0148C202.281 53.035 201.519 52.164 200.43 52.0551C199.45 51.9463 198.58 52.7084 198.471 53.7971L198.362 54.8858C198.253 55.9745 199.015 56.7366 200.104 56.8454Z" fill="#22272E"/>
<path d="M216.217 57.1721C217.196 57.281 218.067 56.5189 218.176 55.4302L218.285 54.3415C218.394 53.3616 217.632 52.4907 216.543 52.3818C215.563 52.2729 214.692 53.035 214.584 54.1237L214.475 55.2124C214.475 56.1923 215.237 57.0632 216.217 57.1721Z" fill="#22272E"/>
<path d="M176.152 49.9866C176.152 49.9866 172.995 44.5431 168.749 45.9584C164.503 47.3737 164.612 53.9059 166.681 57.8253C169.293 62.8333 175.281 64.3575 178.439 63.8131" fill="#B28D93"/>
<path d="M168.64 53.9059C168.422 53.3616 168.314 52.8172 168.422 52.164C168.422 51.8374 168.64 51.5108 168.858 51.1842C169.185 50.8576 169.62 50.6398 170.056 50.6398C170.818 50.6398 171.58 50.9664 172.015 51.5108C172.451 51.9463 172.777 52.4906 173.104 53.035C173.648 54.0148 173.866 54.9947 174.193 55.8656C174.41 56.3011 174.519 56.6277 174.737 56.8454C174.955 57.0632 175.499 57.0632 176.043 57.0632C175.717 57.4987 175.172 57.9342 174.41 57.8253C173.648 57.6075 173.213 57.1721 172.777 56.7366C172.124 55.7567 171.689 54.8858 171.253 54.0148C170.818 53.1439 170.382 52.4906 169.947 52.3818C169.838 52.3818 169.729 52.2729 169.62 52.3818C169.511 52.3818 169.402 52.4906 169.293 52.7084C169.076 52.8172 168.858 53.3616 168.64 53.9059Z" fill="#22272E"/>
<path d="M233.092 144.595C233.092 144.595 231.023 144.051 229.499 143.942C227.975 143.724 226.886 143.942 226.886 143.942" stroke="#896068" stroke-width="1.8" stroke-miterlimit="10" stroke-linecap="round" stroke-linejoin="round"/>
<path d="M238.1 136.43C238.1 136.43 226.995 138.825 226.015 139.587" stroke="#896068" stroke-width="1.8" stroke-miterlimit="10" stroke-linecap="round" stroke-linejoin="round"/>
<path d="M236.793 131.204C236.793 131.204 229.172 132.837 228.737 132.946C227.321 133.381 224.708 134.143 224.708 134.143" stroke="#896068" stroke-width="1.8" stroke-miterlimit="10" stroke-linecap="round" stroke-linejoin="round"/>
<path d="M150.132 272.409C150.132 272.409 162.87 266.965 162.87 248.457" stroke="#22272E" stroke-width="1.8" stroke-miterlimit="10" stroke-linecap="round" stroke-linejoin="round"/>
<path d="M27.9797 423.957L21.6652 555.037C21.5563 556.561 22.7539 557.758 24.2781 557.758C25.5845 557.758 26.7821 556.778 26.891 555.363L37.8869 423.848H27.9797V423.957Z" fill="#B8D8C7"/>
<path d="M90.1447 423.957L96.4592 555.037C96.5681 556.561 95.3705 557.758 93.8464 557.758C92.5399 557.758 91.3423 556.778 91.2335 555.363L80.2375 423.848H90.1447V423.957Z" fill="#B8D8C7"/>
<path d="M70.4391 398.154L70.3302 529.343C70.3302 530.867 69.1326 531.956 67.6084 531.956C66.302 531.847 65.2133 530.758 65.1044 529.452L60.5319 397.61L70.4391 398.154Z" fill="#B8D8C7"/>
<path d="M94.4995 411.219C84.4835 409.803 71.6367 408.932 57.4836 408.932C43.4393 408.932 30.4837 409.803 20.4676 411.219H0V418.622C0 423.957 25.6934 428.311 57.4836 428.311C89.1649 428.311 114.967 423.957 114.967 418.622V411.219H94.4995Z" fill="#22272E"/>
<path d="M57.4836 420.908C89.2309 420.908 114.967 416.57 114.967 411.219C114.967 405.867 89.2309 401.529 57.4836 401.529C25.7363 401.529 0 405.867 0 411.219C0 416.57 25.7363 420.908 57.4836 420.908Z" fill="#63737A"/>
<path d="M98.5278 513.557C98.5278 513.557 97.1125 524.008 95.1529 527.166C93.0843 530.323 89.9271 538.162 90.0359 540.012C90.3626 543.387 100.814 551.988 106.911 557.214C113.008 562.44 118.016 562.657 129.338 563.528C140.661 564.399 145.233 562.657 145.233 559.174C145.233 555.799 142.947 554.057 137.939 548.286C133.04 542.516 125.092 534.351 122.479 529.67C119.866 524.988 125.092 517.912 127.487 513.557C129.883 509.202 103.536 501.255 98.5278 513.557Z" fill="#22272E"/>
<path d="M127.487 513.557C125.201 517.912 119.975 524.988 122.479 529.67C122.697 530.105 123.024 530.541 123.241 530.976C122.588 530.105 120.302 527.275 115.838 527.275C110.612 527.275 107.782 533.371 103.754 530.432C101.141 528.472 97.7657 526.295 95.806 525.097C97.3302 520.851 98.3101 513.448 98.3101 513.448C103.536 501.255 129.882 509.202 127.487 513.557Z" fill="#F4C2C9"/>
<path d="M94.6085 335.771C94.6085 335.771 99.181 346.876 101.467 350.034C103.754 353.191 159.822 358.634 165.81 381.388C171.798 404.142 136.306 500.166 132.495 509.202C128.685 518.238 128.141 526.186 115.294 524.879C102.338 523.464 92.1045 515.299 94.6085 506.263C97.1125 497.226 106.911 473.166 110.939 444.315C115.076 415.465 129.556 409.368 103.427 400.549C77.2981 391.731 56.5038 394.562 63.6893 370.175C70.8747 345.788 89.6004 333.159 94.6085 335.771Z" fill="#6DAFA7"/>
<path d="M135.108 529.452C135.108 529.452 139.681 545.783 139.681 547.524C139.681 549.375 136.741 563.311 137.395 567.448C138.048 571.585 143.709 573.871 151.221 580.73C159.277 588.242 165.81 587.807 175.717 587.044C184.209 586.391 195.531 582.254 196.729 578.879C198.035 575.395 196.62 573.109 189.87 569.516C183.882 566.25 168.858 549.593 168.096 547.742C167.334 545.891 162.761 521.613 162.544 519.327C162.326 516.932 132.387 523.246 135.108 529.452Z" fill="#22272E"/>
<path d="M167.334 545.456C165.048 542.625 161.782 540.23 157.427 542.843C152.854 545.565 152.419 551.444 150.024 551.77C147.628 552.097 147.411 548.722 144.253 547.742C141.096 546.871 139.136 544.694 139.136 544.694C137.939 539.577 135.108 529.343 135.108 529.343C132.387 523.138 162.326 516.823 162.435 519.218C162.653 521.287 165.919 538.924 167.334 545.456Z" fill="#F4C2C9"/>
<path d="M174.628 557.323C174.628 557.323 168.967 555.145 157.862 560.698" stroke="white" stroke-width="1.8" stroke-miterlimit="10" stroke-linecap="round" stroke-linejoin="round"/>
<path d="M182.467 564.29C182.467 564.29 174.084 562.113 162.979 567.665" stroke="white" stroke-width="1.8" stroke-miterlimit="10" stroke-linecap="round" stroke-linejoin="round"/>
<path d="M17.9637 334.03C17.9637 334.03 12.7379 347.747 9.58065 356.348C6.42341 364.949 2.3952 382.586 11.4314 396.848C20.4677 411.11 37.887 413.614 65.8667 417.098C93.5198 420.473 99.5076 422.65 99.5076 422.65C99.5076 422.65 105.822 450.848 116.056 478.501C126.29 506.154 130.1 522.267 130.536 526.186C130.971 529.996 133.04 533.916 139.899 535.549C146.757 537.182 164.612 533.262 165.81 525.315C166.898 517.367 159.278 493.089 154.269 460.864C149.261 428.638 146.975 401.638 137.503 389.118C127.923 376.598 90.6891 375.291 90.6891 371.699C90.5803 368.215 36.145 325.32 17.9637 334.03Z" fill="#6DAFA7"/>
<path d="M154.16 460.864C149.152 428.638 146.866 401.638 137.394 389.118C127.814 376.598 92.4309 373.114 90.5801 371.699C90.5801 371.699 81.8705 365.711 69.7859 365.82" stroke="#22272E" stroke-width="1.8" stroke-miterlimit="10" stroke-linecap="round" stroke-linejoin="round"/>
<path d="M90.5802 371.699C90.5802 371.699 91.4512 366.037 90.5802 363.425" stroke="#22272E" stroke-width="1.8" stroke-miterlimit="10" stroke-linecap="round" stroke-linejoin="round"/>
<path d="M11.4315 375.945C11.4315 375.945 29.6129 375.618 33.6411 355.804" stroke="#22272E" stroke-width="1.8" stroke-miterlimit="10" stroke-linecap="round" stroke-linejoin="round"/>
<path d="M99.3988 422.65C99.3988 422.65 99.181 417.642 103.536 413.832" stroke="#22272E" stroke-width="1.8" stroke-miterlimit="10" stroke-linecap="round" stroke-linejoin="round"/>
<path d="M136.85 546.871C136.85 546.871 134.564 540.666 116.274 545.674" stroke="white" stroke-width="1.8" stroke-miterlimit="10" stroke-linecap="round" stroke-linejoin="round"/>
<path d="M127.705 537.073C127.705 537.073 125.963 532.5 111.374 538.706" stroke="white" stroke-width="1.8" stroke-miterlimit="10" stroke-linecap="round" stroke-linejoin="round"/>
<path d="M570.917 138.063L424.377 132.075C421.22 131.966 419.042 129.026 419.478 125.434L431.454 37.3576C431.889 33.8737 434.937 31.0431 438.095 30.8253L584.634 24.8375C588.662 24.6197 591.493 27.6681 591.058 31.5874L579.082 130.986C578.646 135.123 574.945 138.28 570.917 138.063Z" fill="#F8AB5D"/>
<path d="M568.413 136.212L421.873 130.224C418.716 130.115 416.538 127.176 416.974 123.583L428.95 35.5068C429.385 32.0229 432.433 29.1923 435.591 28.9746L582.13 22.9867C586.158 22.7689 588.989 25.8173 588.554 29.7366L576.578 129.135C576.142 133.272 572.441 136.321 568.413 136.212Z" fill="#FFE779"/>
<path d="M452.03 79.3816H490.788" stroke="#F8AB5D" stroke-width="1.8" stroke-miterlimit="10" stroke-linecap="round" stroke-linejoin="round"/>
<path d="M486.651 111.281L465.748 110.736C462.482 110.627 460.304 107.797 460.74 104.422L467.381 54.4503C467.816 51.0753 470.756 48.2447 474.022 48.1358L494.925 47.5914" stroke="#F8AB5D" stroke-width="1.8" stroke-miterlimit="10" stroke-linecap="round" stroke-linejoin="round"/>
<path d="M517.788 53.3616L493.51 53.797C492.094 53.797 491.223 52.7083 491.332 51.293L492.312 43.9987C492.53 42.5834 493.727 41.3858 495.143 41.3858L519.421 40.6237C520.836 40.6237 521.816 41.7124 521.707 43.1277L520.727 50.5309C520.51 52.164 519.203 53.3616 517.788 53.3616Z" fill="#6DAFA7"/>
<path d="M559.594 85.9138L533.574 85.805C532.159 85.805 531.07 84.6074 531.288 83.0832L532.267 75.4623C532.485 73.9381 533.792 72.7405 535.207 72.7405L561.227 72.6317C562.751 72.6317 563.84 73.8292 563.622 75.3534L562.642 83.0832C562.534 84.7163 561.118 85.9138 559.594 85.9138Z" fill="#6DAFA7"/>
<path d="M509.622 118.248L485.344 117.595C483.929 117.595 483.058 116.398 483.167 114.982L484.147 107.579C484.364 106.164 485.562 104.966 486.977 105.075L511.255 105.511C512.671 105.511 513.651 106.708 513.542 108.232L512.562 115.744C512.344 117.16 511.038 118.248 509.622 118.248Z" fill="#6DAFA7"/>
<path d="M517.135 79.2727H531.832" stroke="#F8AB5D" stroke-width="1.8" stroke-miterlimit="10" stroke-linecap="round" stroke-linejoin="round"/>
<path d="M513.759 85.696L489.481 85.5872C488.066 85.5872 487.195 84.3896 487.304 82.9743L488.284 75.68C488.502 74.2646 489.699 73.0671 491.114 73.0671L515.393 72.9582C516.808 72.9582 517.788 74.1558 517.679 75.5711L516.699 83.0831C516.481 84.4985 515.175 85.696 513.759 85.696Z" fill="#F4C2C9"/>
<path d="M452.03 79.3816C452.574 75.3534 449.961 72.1962 446.26 72.1962C442.558 72.1962 439.183 75.4623 438.639 79.3816C438.095 83.3009 440.599 86.5671 444.3 86.5671C448.002 86.5671 451.486 83.4098 452.03 79.3816Z" fill="#6DAFA7"/>
<path d="M556.546 402.945V410.348C556.546 415.138 532.485 419.057 502.655 419.057C472.933 419.057 448.764 415.138 448.764 410.348V402.945H474.131C482.405 402.074 492.203 401.638 502.655 401.638C513.106 401.638 522.905 402.074 531.179 402.945H556.546Z" fill="#22272E"/>
<path d="M502.655 411.654C532.418 411.654 556.546 407.755 556.546 402.945C556.546 398.134 532.418 394.235 502.655 394.235C472.892 394.235 448.764 398.134 448.764 402.945C448.764 407.755 472.892 411.654 502.655 411.654Z" fill="#63737A"/>
<path d="M502.655 499.622C501.239 499.622 500.151 498.533 500.151 497.117V411.763H505.268V497.117C505.268 498.533 504.07 499.622 502.655 499.622Z" fill="#22272E"/>
<path d="M502.655 496.9C502.655 496.9 473.042 499.077 463.679 518.783" stroke="#22272E" stroke-width="4" stroke-miterlimit="10" stroke-linecap="round" stroke-linejoin="round"/>
<path d="M541.739 518.783C532.268 499.077 502.764 496.9 502.764 496.9C502.764 496.9 497.864 500.71 495.796 523.246" stroke="#22272E" stroke-width="4" stroke-miterlimit="10" stroke-linecap="round" stroke-linejoin="round"/>
<path d="M497.507 533.422C501.779 532.413 504.424 528.133 503.415 523.861C502.407 519.589 498.126 516.944 493.854 517.953C489.583 518.961 486.938 523.242 487.946 527.514C488.955 531.785 493.235 534.431 497.507 533.422Z" fill="#6DAFA7"/>
<path d="M547.309 526.015C550.412 522.911 550.412 517.879 547.309 514.775C544.205 511.672 539.173 511.672 536.069 514.775C532.966 517.879 532.966 522.911 536.069 526.015C539.173 529.119 544.205 529.119 547.309 526.015Z" fill="#6DAFA7"/>
<path d="M465.496 528.089C469.767 527.08 472.413 522.799 471.404 518.528C470.395 514.256 466.115 511.611 461.843 512.619C457.571 513.628 454.926 517.909 455.935 522.18C456.944 526.452 461.224 529.097 465.496 528.089Z" stroke="#22272E" stroke-width="1.8" stroke-miterlimit="10" stroke-linecap="round" stroke-linejoin="round"/>
<path d="M532.05 322.707C537.276 335.227 546.53 355.368 546.421 378.013C546.421 405.449 513.215 416.662 509.84 421.017C506.465 425.481 437.333 430.162 430.256 416.336C423.18 402.4 423.615 387.92 442.559 352.973C455.188 329.566 453.554 323.034 453.663 322.707C453.663 322.707 455.405 324.558 456.167 317.263C456.929 309.969 528.893 315.304 532.05 322.707Z" fill="#22272E"/>
<path d="M446.695 387.92C439.945 389.009 428.623 392.602 427.425 410.566C426.337 428.529 440.599 498.206 440.816 510.509C441.034 522.811 439.837 523.355 431.454 530.867C423.071 538.379 406.413 546.545 407.829 552.315C409.244 558.085 428.296 562.984 440.816 560.698C453.445 558.412 456.167 544.15 458.562 542.952C460.957 541.754 462.482 537.291 462.808 534.46C463.135 531.521 471.953 431.686 472.824 416.989C474.022 398.808 466.51 384.763 446.695 387.92Z" fill="#F4C2C9"/>
<path d="M463.679 525.968C463.244 530.758 462.917 533.807 462.917 534.351C462.59 537.291 461.066 541.645 458.671 542.843C456.276 544.041 453.554 558.303 440.925 560.589C428.296 562.875 409.244 557.976 407.938 552.206C406.849 547.742 416.756 541.754 425.139 535.766C424.921 535.984 422.526 538.379 425.139 538.924C427.861 539.468 432.76 537.4 442.123 542.625C451.486 547.851 454.207 539.686 456.058 534.133C457.691 529.452 460.957 530.976 463.679 525.968Z" fill="#22272E"/>
<path d="M479.574 391.187C471.409 396.63 468.143 403.271 466.619 428.311C464.55 462.714 460.849 516.823 459.107 522.593C457.365 528.363 455.187 530.976 453.119 536.746C451.05 542.516 433.522 559.174 434.611 565.488C435.591 571.803 445.716 578.117 452.03 580.186C458.345 582.254 465.857 583.125 470.429 580.186C475.002 577.246 477.288 558.847 478.486 554.492C479.683 550.029 480.99 546.871 482.078 539.142C483.058 531.521 491.115 496.573 494.49 486.557C497.865 476.65 512.998 427.876 513.433 408.824C513.651 389.771 491.55 383.348 479.574 391.187Z" fill="#F4C2C9"/>
<path d="M479.574 391.187C471.409 396.63 468.143 403.271 466.619 428.311C464.55 462.714 460.849 516.823 459.107 522.593C457.365 528.363 455.187 530.976 453.119 536.746" stroke="#E26E85" stroke-width="1.8" stroke-miterlimit="10" stroke-linecap="round" stroke-linejoin="round"/>
<path d="M483.276 532.283C482.623 535.331 482.187 537.726 482.078 539.141C481.099 546.762 479.683 550.028 478.486 554.492C477.288 558.956 475.111 577.355 470.538 580.186C465.966 583.125 458.454 582.254 452.139 580.186C445.825 578.117 435.809 571.803 434.72 565.597C433.958 561.024 442.885 551.117 448.655 543.714C448.329 544.15 444.192 550.355 451.595 555.799C458.018 560.589 469.994 563.528 473.042 556.343C476.091 549.158 477.724 542.408 479.139 540.23C480.554 538.162 482.296 535.875 483.276 532.283Z" fill="#22272E"/>
<path d="M461.55 559.614C462.4 557.299 460.573 554.499 457.468 553.359C454.364 552.219 451.159 553.17 450.309 555.484C449.458 557.798 451.286 560.599 454.39 561.739C457.495 562.879 460.7 561.928 461.55 559.614Z" fill="white"/>
<path d="M437.333 541.101C437.006 543.387 434.176 544.803 431.127 544.367C428.079 543.932 425.792 541.646 426.119 539.359C426.446 537.073 429.276 535.658 432.325 536.093C435.482 536.529 437.659 538.815 437.333 541.101Z" fill="white"/>
<path d="M456.276 231.691C456.276 231.691 441.47 231.909 431.454 254.01C421.438 276.002 405.542 307.247 407.829 320.421C410.115 333.594 440.49 320.421 454.861 295.707C469.123 270.994 467.816 232.345 456.276 231.691Z" fill="#6DAFA7"/>
<path d="M467.707 187.708C467.707 187.708 460.195 187.272 457.8 177.583C455.405 167.893 465.312 155.809 474.457 152.869C483.603 149.93 485.889 155.591 491.877 156.244C497.865 156.897 513.868 155.155 520.292 169.417C526.715 183.68 516.046 197.179 524.211 207.849C532.376 218.627 539.235 238.332 515.175 246.824C491.115 255.316 463.461 248.675 454.861 233.324C446.369 217.974 462.808 208.937 465.312 200.99C468.034 193.151 469.232 191.192 467.707 187.708Z" fill="#22272E"/>
<path d="M492.094 226.03C492.094 226.03 469.885 225.812 457.8 230.385C454.208 231.691 451.159 233.978 450.288 245.3C449.526 255.534 448.982 255.425 446.151 260.433C441.687 268.49 439.837 277.744 448.437 292.768C453.99 302.566 452.248 320.965 451.377 330.219C450.506 339.582 451.595 343.61 469.558 348.183C487.522 352.755 526.062 348.183 530.417 343.828C534.772 339.473 536.731 296.36 535.86 287.977C534.989 279.594 551.102 257.276 549.905 248.457C548.816 239.639 538.255 227.554 492.094 226.03Z" fill="#FFE779"/>
<path d="M479.901 224.179C479.901 224.179 469.885 224.615 466.619 227.99C464.332 230.385 466.183 231.909 468.905 233.978C470.756 235.393 464.224 239.095 467.599 243.34C470.103 246.498 475.764 242.578 477.941 245.518C480.445 249.002 480.881 250.308 484.691 250.417C489.481 250.526 489.917 245.409 493.51 245.953C497.864 246.607 498.844 248.131 502.002 247.804C506.901 247.26 507.01 242.361 506.356 239.421C505.703 236.482 507.445 236.373 511.256 235.284C515.066 234.195 515.828 226.792 501.784 224.724C487.848 222.655 479.901 224.179 479.901 224.179Z" fill="white"/>
<path d="M504.723 204.474C504.723 204.474 502.437 215.47 502.655 227.228C502.655 227.228 498.844 238.659 485.78 237.897C473.586 237.244 476.417 227.445 476.417 227.445C476.417 227.445 479.356 216.558 479.465 213.728C479.683 210.897 501.675 201.534 504.723 204.474Z" fill="#F4C2C9"/>
<path d="M495.034 216.885C489.808 220.369 483.711 222.437 477.941 222.002C477.179 224.941 476.526 227.445 476.526 227.445C476.526 227.445 476.417 227.99 476.308 228.861C484.8 228.643 492.421 224.833 495.034 216.885Z" fill="#E26E85"/>
<path d="M466.292 176.821C466.292 177.147 466.619 185.53 465.094 194.893C463.57 204.256 465.203 219.062 475.328 222.546C489.373 227.337 503.961 217.756 507.554 203.821C511.147 189.885 512.997 172.792 495.143 167.676C477.179 162.45 467.272 169.962 466.292 176.821Z" fill="#F4C2C9"/>
<path d="M465.748 180.74C465.748 180.74 464.986 177.365 468.143 176.712C471.3 176.059 474.24 174.643 477.179 173.337C479.248 172.357 481.86 172.684 483.929 177.256C488.502 187.054 494.272 201.752 506.247 197.615C506.247 197.615 510.82 198.595 512.126 190.974C513.433 183.353 512.889 173.119 499.606 166.913C486.324 160.817 471.082 164.954 468.252 168.111C463.897 173.01 465.748 180.74 465.748 180.74Z" fill="#22272E"/>
<path d="M501.131 199.139C501.131 199.139 506.03 192.389 510.602 196.308C515.175 200.228 508.86 210.135 502.546 209.808" fill="#F4C2C9"/>
<path d="M508.207 210.57C508.207 209.046 506.901 206.216 505.377 206.216C503.852 206.216 502.546 209.046 502.546 210.57C502.546 212.095 503.852 213.401 505.377 213.401C506.901 213.401 508.207 212.204 508.207 210.57Z" fill="#FFE779"/>
<path d="M508.969 200.881C508.534 200.663 508.207 200.337 507.881 200.228C507.554 200.01 507.227 200.119 507.118 200.228C507.01 200.228 507.01 200.337 506.901 200.446C506.792 200.554 506.683 200.663 506.683 200.772C506.574 200.99 506.574 201.208 506.465 201.534C506.356 202.187 506.465 203.058 506.247 204.038C506.139 204.583 505.812 205.127 505.268 205.454C504.723 205.78 504.179 205.562 503.743 205.454C504.179 205.236 504.506 205.018 504.614 204.691C504.723 204.474 504.723 204.147 504.723 203.821C504.723 203.167 504.506 202.296 504.614 201.316C504.614 200.772 504.832 200.228 505.268 199.683C505.485 199.466 505.703 199.248 505.921 199.03C506.247 198.921 506.574 198.704 506.901 198.704C507.663 198.704 508.207 199.139 508.425 199.575C508.86 200.01 508.969 200.446 508.969 200.881Z" fill="#22272E"/>
<path d="M469.994 194.24C470.429 195.22 470.429 196.308 470.211 197.397C469.994 198.486 469.558 199.466 468.796 200.337C468.578 200.663 468.47 200.663 468.47 200.99C468.47 201.208 468.578 201.534 468.796 201.97C469.014 202.296 469.232 202.732 469.558 203.058C469.885 203.385 470.211 203.821 470.647 203.929C470.103 204.147 469.558 204.038 469.014 203.821C468.47 203.603 468.034 203.276 467.599 202.95C467.163 202.514 466.836 201.97 466.728 201.208C466.728 200.99 466.728 200.881 466.728 200.663C466.728 200.446 466.836 200.228 466.836 200.119C466.945 199.901 466.945 199.792 467.054 199.575C467.163 199.466 467.272 199.248 467.381 199.139C468.47 197.833 469.232 196.2 469.994 194.24Z" fill="#22272E"/>
<path d="M474.893 209.7C474.893 209.7 478.921 210.244 481.86 207.74" stroke="#22272E" stroke-width="1.8" stroke-miterlimit="10" stroke-linecap="round" stroke-linejoin="round"/>
<path d="M479.574 185.966C479.357 185.313 479.683 184.333 480.01 183.897C480.881 182.809 483.711 182.7 485.889 184.115C488.066 185.421 488.937 187.49 488.284 187.708C487.304 188.034 486.324 186.728 484.038 186.51C481.752 186.184 480.01 187.163 479.574 185.966Z" fill="#22272E"/>
<path d="M468.361 185.639C468.905 185.748 469.449 185.421 469.449 184.877C469.558 184.115 469.558 183.244 469.232 182.7C468.578 181.72 466.836 182.809 466.292 183.571C465.748 184.333 465.965 185.639 466.292 185.639C466.51 185.639 467.49 185.421 468.361 185.639Z" fill="#22272E"/>
<path d="M481.752 196.2C482.623 196.309 483.276 195.655 483.385 194.784L483.494 193.913C483.602 193.042 482.949 192.389 482.078 192.28C481.207 192.171 480.554 192.825 480.445 193.696L480.336 194.567C480.336 195.438 480.881 196.2 481.752 196.2Z" fill="#22272E"/>
<path d="M467.707 195.111C468.578 195.22 469.231 194.567 469.34 193.696L469.449 192.825C469.558 191.954 468.905 191.3 468.034 191.192C467.163 191.083 466.51 191.736 466.401 192.607L466.292 193.478C466.292 194.349 466.945 195.002 467.707 195.111Z" fill="#22272E"/>
<path d="M318.99 364.622L325.305 512.25C325.414 513.883 324.216 515.299 322.692 515.299C321.386 515.299 320.188 514.101 320.079 512.577L309.083 364.513H318.99V364.622Z" fill="#B8D8C7"/>
<path d="M332.599 347.312L338.587 487.755C338.696 489.388 337.498 490.694 336.083 490.694C334.777 490.694 333.688 489.605 333.579 488.19L323.128 347.312H332.599V347.312Z" fill="#B8D8C7"/>
<path d="M220.027 364.731L200.213 511.162C199.995 512.795 201.084 514.319 202.499 514.428C203.805 514.537 205.112 513.448 205.33 512.033L229.826 365.602L220.027 364.731Z" fill="#B8D8C7"/>
<path d="M352.196 208.066C352.196 208.066 358.619 211.006 353.067 236.808C347.515 262.611 337.281 296.796 338.696 335.445C340.002 374.094 314.745 390.098 273.265 387.158C231.785 384.219 296.89 267.074 296.89 267.074C296.89 267.074 343.595 197.506 352.196 208.066Z" fill="#B8D8C7"/>
<path d="M240.93 215.905C242.019 211.115 244.305 203.385 252.906 200.228C261.507 197.071 351.869 198.595 353.067 209.808C354.156 220.913 330.64 273.28 330.749 310.731C330.857 348.074 337.499 379.211 293.406 385.416C249.313 391.622 202.064 382.477 206.854 367.453C211.644 352.538 226.233 332.288 230.697 291.026C235.16 249.764 236.902 234.413 240.93 215.905Z" fill="white"/>
<path d="M220.463 335.771C220.463 335.771 187.257 377.36 186.277 391.187C185.298 405.013 240.821 404.469 240.93 401.638C241.148 398.807 250.293 382.695 254.648 382.368C257.479 382.15 261.833 381.933 262.596 385.416C263.684 390.316 262.596 400.549 262.596 400.549L310.39 422.977L315.071 403.053C315.071 403.053 323.127 390.098 323.127 368.759C323.127 347.421 316.922 315.957 316.922 315.957C316.922 315.957 225.906 325.538 220.463 335.771Z" fill="#22272E"/>
<path d="M259.656 536.311C259.656 536.311 256.716 538.271 256.063 543.17C255.41 548.069 252.797 555.363 251.055 561.351C249.313 567.339 244.196 578.988 246.809 580.948C250.511 583.887 260.309 585.956 271.632 586.936C282.954 587.915 288.398 587.262 290.14 583.996C291.773 580.73 288.18 562.004 287.527 554.928C286.874 547.851 287.527 540.448 286.22 537.944C284.914 535.549 264.882 529.561 259.656 536.311Z" fill="#22272E"/>
<path d="M219.483 529.996C219.483 529.996 218.176 532.065 216.87 536.42C215.563 540.666 204.023 558.52 204.132 564.182C204.35 569.952 215.237 569.952 219.483 570.17C224.6 570.387 237.555 569.407 241.801 566.468C246.047 563.528 246.156 553.403 246.483 550.137C247.136 543.605 247.027 539.686 245.503 529.887C245.067 526.73 240.277 525.859 237.664 527.71C235.051 529.452 221.442 525.75 219.483 529.996Z" fill="#22272E"/>
<path d="M261.398 523.355C261.398 523.355 259.438 537.617 259.22 539.359C259.003 540.992 262.16 544.912 271.305 546.871C279.144 548.613 283.825 545.674 284.587 544.585C285.349 543.496 288.942 525.315 290.14 521.178C291.337 517.15 263.902 518.456 261.398 523.355Z" fill="#F4C2C9"/>
<path d="M216.87 520.307C216.87 520.307 219.809 530.323 219.809 531.629C219.809 532.936 224.817 535.658 231.785 535.44C238.644 535.222 244.632 531.412 244.632 529.561C244.632 527.71 242.563 509.964 242.563 509.964C242.563 509.964 217.523 515.299 216.87 520.307Z" fill="#F4C2C9"/>
<path d="M257.37 561.678C257.37 561.678 270.761 557.214 283.39 567.666" stroke="white" stroke-width="1.8" stroke-miterlimit="10" stroke-linecap="round" stroke-linejoin="round"/>
<path d="M260.853 553.73C260.853 553.73 274.027 551.335 282.41 558.194" stroke="white" stroke-width="1.8" stroke-miterlimit="10" stroke-linecap="round" stroke-linejoin="round"/>
<path d="M259.765 542.081C259.765 542.081 261.942 543.387 264.446 542.081C266.95 540.775 269.563 538.379 274.68 539.359C280.886 540.557 282.083 546.98 285.458 544.15C285.458 544.15 285.567 548.504 277.075 548.94C268.583 549.375 259.874 543.496 259.765 542.081Z" fill="#22272E"/>
<path d="M219.374 531.847C219.374 531.847 220.571 533.154 222.531 531.303C224.491 529.561 224.273 527.383 229.608 526.621C233.092 526.186 236.031 528.69 238.644 530.758C241.257 532.827 243.87 529.996 244.414 527.601C244.414 527.601 246.156 533.807 243.761 536.855C242.019 539.141 235.269 537.508 231.241 537.617C227.321 537.726 218.503 535.766 218.503 535.766L219.374 531.847Z" fill="#22272E"/>
<path d="M211.971 547.851C211.971 547.851 222.205 541.537 236.249 550.029" stroke="white" stroke-width="1.8" stroke-miterlimit="10" stroke-linecap="round" stroke-linejoin="round"/>
<path d="M216.87 541.319C216.87 541.319 225.797 535.004 238.099 543.496" stroke="white" stroke-width="1.8" stroke-miterlimit="10" stroke-linecap="round" stroke-linejoin="round"/>
<path d="M275.442 379.102C275.442 379.102 262.269 380.953 261.398 413.832C260.527 446.71 257.805 499.513 254.104 506.916C250.511 514.319 251.708 523.029 258.567 526.512C265.426 529.996 273.374 534.025 283.39 532.936C293.406 531.956 298.196 526.077 298.196 514.428C298.196 502.67 302.442 470.118 308.974 443.553C315.398 416.989 319.861 390.751 306.579 381.279C293.297 371.808 275.442 379.102 275.442 379.102Z" fill="#22272E"/>
<path d="M197.382 376.489C197.382 376.489 177.568 378.993 188.781 428.094C199.995 477.085 207.507 502.997 205.765 510.509C204.023 518.021 209.467 522.049 215.672 523.464C221.769 524.879 233.745 524.662 240.495 520.851C247.354 517.041 248.007 510.944 245.285 499.295C242.563 487.646 241.91 441.049 241.583 425.045C241.257 409.041 245.285 381.824 225.906 373.985C206.418 366.037 197.382 376.489 197.382 376.489Z" fill="#22272E"/>
<path d="M209.793 408.932C218.512 408.932 225.58 401.962 225.58 393.364C225.58 384.766 218.512 377.795 209.793 377.795C201.075 377.795 194.007 384.766 194.007 393.364C194.007 401.962 201.075 408.932 209.793 408.932Z" stroke="#63737A" stroke-width="1.8" stroke-miterlimit="10" stroke-linecap="round" stroke-linejoin="round"/>
<path d="M287.853 420.908C296.572 420.908 303.64 413.938 303.64 405.34C303.64 396.741 296.572 389.771 287.853 389.771C279.135 389.771 272.067 396.741 272.067 405.34C272.067 413.938 279.135 420.908 287.853 420.908Z" stroke="#63737A" stroke-width="1.8" stroke-miterlimit="10" stroke-linecap="round" stroke-linejoin="round"/>
<path d="M324.216 173.446C324.216 173.446 330.639 171.377 332.708 166.696C334.885 162.014 334.559 147.861 330.748 143.397C326.938 138.934 316.269 140.893 309.519 138.934C302.769 136.974 298.087 132.619 285.567 135.014C273.047 137.41 261.507 148.623 260.962 154.72C260.418 160.817 264.011 163.321 262.704 167.24C261.289 171.051 259.656 174.97 265.753 180.958C271.849 186.946 269.454 190.865 274.027 190.865C278.599 190.865 270.325 176.93 276.204 164.954C282.192 153.087 320.95 159.946 324.216 173.446Z" fill="#22272E"/>
<path d="M197.709 245.518C197.709 245.518 183.338 264.461 180.834 278.723C178.33 292.985 186.059 302.239 195.64 303.764C205.221 305.288 237.337 263.373 238.862 254.881C240.277 246.389 202.281 238.877 197.709 245.518Z" fill="#F4C2C9"/>
<path d="M243.543 208.502C243.543 208.502 236.249 206.433 218.721 221.566C204.023 234.195 192.374 246.28 192.374 246.28C192.374 246.28 223.293 274.369 227.539 281.663C227.539 281.663 246.591 259.671 248.225 237.462C249.858 215.143 246.265 207.631 243.543 208.502Z" fill="#63737A"/>
<path d="M197.709 241.272C197.709 241.272 220.027 259.236 232.112 275.784" stroke="#22272E" stroke-width="1.8" stroke-miterlimit="10" stroke-linecap="round" stroke-linejoin="round"/>
<path d="M234.942 217.756C237.664 211.659 243.108 207.196 249.858 206.978C256.39 206.76 266.297 206.869 280.668 207.849C311.587 210.026 335.43 218.845 341.744 223.417C348.059 227.99 340.329 256.296 333.797 271.973C327.264 287.651 320.188 301.913 318.99 307.356C317.902 312.8 322.148 338.493 319.861 343.719C317.575 348.945 293.297 357.981 262.378 356.239C231.458 354.388 218.612 344.481 217.632 340.78C216.761 337.187 220.571 304.961 222.422 293.965C224.273 282.969 225.579 258.8 225.797 255.316C227.757 232.889 232.112 224.07 234.942 217.756Z" fill="#22272E"/>
<path d="M369.942 268.381C362.212 255.099 335.43 281.554 336.083 287.433C336.083 287.433 340.873 297.449 340.873 298.538C340.873 299.627 336.083 327.171 332.817 342.63C331.837 347.421 328.898 352.755 325.305 357.872C333.797 361.029 342.398 363.642 351.216 365.384C362.756 345.243 376.039 314.433 378.107 306.812C381.918 292.55 377.672 281.663 369.942 268.381Z" fill="#F4C2C9"/>
<path d="M340.873 298.538C340.873 298.538 342.833 293.856 347.841 291.788" stroke="#E26E85" stroke-width="1.8" stroke-miterlimit="10" stroke-linecap="round" stroke-linejoin="round"/>
<path d="M341.744 223.308C341.744 223.308 350.563 228.208 359.272 242.905C367.873 257.603 374.732 270.994 374.732 270.994L336.41 291.026C336.41 291.026 325.305 272.844 320.732 264.679C316.16 256.514 315.724 239.748 322.148 230.385C328.353 221.131 338.696 221.24 341.744 223.308Z" fill="#63737A"/>
<path d="M332.817 285.256C332.817 285.256 355.135 270.558 371.575 265.115" stroke="#22272E" stroke-width="1.8" stroke-miterlimit="10" stroke-linecap="round" stroke-linejoin="round"/>
<path d="M330.639 348.727C330.639 348.727 315.289 350.251 311.805 352.211C308.43 354.171 303.095 366.038 303.531 367.126C303.857 368.215 307.232 367.126 307.232 367.126C307.232 367.126 306.797 369.412 309.41 369.412C312.023 369.412 312.458 368.324 312.458 368.324C312.458 368.324 312.023 371.154 315.071 371.046C318.119 370.828 324.434 365.384 324.434 365.384C324.434 365.384 321.059 371.372 323.127 372.787C325.087 374.203 329.66 369.195 330.313 368.215C330.966 367.235 348.276 377.687 354.918 358.417C354.918 358.417 342.397 344.808 330.639 348.727Z" fill="#F4C2C9"/>
<path d="M266.079 206.325C266.079 206.325 260.853 206.869 259.765 207.849C258.676 208.829 255.41 217.321 259.765 226.139C264.12 234.849 276.748 239.312 289.595 235.284C302.442 231.365 307.885 218.954 307.45 215.143C307.014 211.333 304.728 210.135 300.047 208.937C295.365 207.74 266.079 206.325 266.079 206.325Z" fill="#63737A"/>
<path d="M272.285 178.998C272.285 178.998 272.611 189.014 270.107 197.179C269.019 200.881 267.277 204.256 266.188 206.216C265.317 207.849 264.664 209.591 264.446 211.333C263.793 215.796 264.12 223.526 272.285 227.228C285.349 233.107 299.067 222.329 300.918 213.728C300.918 213.728 301.68 204.8 303.639 201.208C305.599 197.724 278.599 175.623 272.285 178.998Z" fill="#F4C2C9"/>
<path d="M300.047 216.232C300.482 215.361 300.7 214.49 300.918 213.728C300.918 213.728 301.027 211.986 301.462 209.7C292.426 208.175 284.479 202.95 279.579 195.873C280.233 206.542 289.378 214.708 300.047 216.232Z" fill="#E26E85"/>
<path d="M190.305 302.022C190.305 302.022 195.64 308.01 219.374 302.022C242.999 296.034 273.7 279.486 278.273 277.852C282.845 276.111 284.587 276.982 289.486 276.982C301.136 277.199 305.926 276.111 307.45 275.348C310.498 273.824 311.914 271.538 311.369 269.578C310.825 267.619 312.458 267.074 312.785 265.332C313.329 262.066 312.131 261.631 312.458 261.413C312.785 261.195 316.051 260.215 316.704 259.345C318.337 256.84 317.031 255.207 317.031 255.207C317.031 255.207 321.168 254.119 326.067 253.683C330.966 253.248 333.906 251.506 332.49 249.764C331.075 248.022 321.494 248.566 315.289 248.566C309.083 248.566 306.906 248.675 306.47 248.457C304.075 247.695 299.394 246.28 297.107 246.498C294.821 246.716 292.208 248.566 287.745 250.961C283.281 253.357 278.273 255.316 271.741 256.949C266.733 258.256 233.092 260.869 212.297 264.788C209.358 265.332 206.636 265.877 204.35 266.53C201.519 267.292 199.233 268.054 197.709 268.816C186.386 274.913 176.479 290.917 190.305 302.022Z" fill="#F4C2C9"/>
<path d="M316.922 255.207C316.922 255.207 314.091 254.772 313.111 254.554C312.022 254.336 310.498 254.336 310.498 254.336" stroke="#E26E85" stroke-width="1.8" stroke-miterlimit="10" stroke-linecap="round" stroke-linejoin="round"/>
<path d="M312.458 261.413C312.458 261.413 310.498 261.957 309.736 262.284" stroke="#E26E85" stroke-width="1.8" stroke-miterlimit="10" stroke-linecap="round" stroke-linejoin="round"/>
<path d="M311.369 268.381C311.369 268.381 309.301 269.578 308.43 269.905" stroke="#E26E85" stroke-width="1.8" stroke-miterlimit="10" stroke-linecap="round" stroke-linejoin="round"/>
<path d="M278.273 277.853C269.89 267.945 274.136 256.296 274.136 256.296L264.773 258.038C259.438 271.211 268.91 282.316 268.91 282.316L278.273 277.853Z" fill="#22272E"/>
<path d="M306.361 248.457C306.361 248.457 300.482 248.566 299.502 249.002" stroke="#E26E85" stroke-width="1.8" stroke-miterlimit="10" stroke-linecap="round" stroke-linejoin="round"/>
<path d="M212.297 264.788C209.358 265.332 206.636 265.877 204.35 266.53C201.519 267.292 199.233 268.054 197.709 268.816" stroke="#E26E85" stroke-width="1.8" stroke-miterlimit="10" stroke-linecap="round" stroke-linejoin="round"/>
<path d="M273.918 268.381C273.918 265.223 271.414 262.719 268.257 262.719C265.099 262.719 262.595 265.223 262.595 268.381C262.595 271.538 265.099 274.042 268.257 274.042C271.305 273.933 273.918 271.429 273.918 268.381Z" fill="white"/>
<path d="M325.522 154.938C325.522 154.938 327.918 162.123 324.543 172.793C321.168 183.571 318.881 187.49 316.051 195.982C313.111 204.474 306.361 211.877 294.712 210.679C282.519 209.373 272.938 198.268 272.394 184.442C271.849 170.615 270.652 149.059 287.091 145.248C303.313 141.547 322.692 151.236 325.522 154.938Z" fill="#F4C2C9"/>
<path d="M314.744 178.018C314.744 179.325 314.744 180.522 314.962 181.72C315.071 182.264 315.18 182.917 315.289 183.462C315.398 183.788 315.398 184.006 315.507 184.333L315.615 184.768L315.724 185.313C315.942 186.075 315.942 186.837 315.724 187.708C315.398 188.47 314.853 189.232 314.2 189.559C312.894 190.321 311.478 190.43 310.172 190.103C311.369 189.559 312.567 189.014 313.22 188.361C313.982 187.599 314.091 186.837 313.765 185.857L313.656 185.53L313.547 184.986C313.438 184.659 313.438 184.333 313.329 184.006C313.22 183.353 313.22 182.591 313.22 181.938C313.547 180.413 313.982 178.998 314.744 178.018Z" fill="#22272E"/>
<path d="M275.224 172.139C275.224 172.139 278.817 171.268 281.103 161.797C281.103 161.797 281.866 159.619 285.676 162.559C289.378 165.498 295.801 170.288 306.906 165.063C318.01 159.837 319.426 158.095 320.95 159.946C320.95 159.946 322.583 168.22 328.244 165.607C333.906 163.103 330.857 148.297 312.132 143.506C293.406 138.716 280.124 140.349 274.136 150.801C268.039 161.361 270.434 171.486 275.224 172.139Z" fill="#22272E"/>
<path d="M309.41 168.655C310.063 167.893 310.716 166.151 309.845 164.954C308.648 163.103 300.482 161.797 298.523 163.43C296.563 165.063 301.462 165.28 303.748 166.369C306.035 167.567 308.756 169.417 309.41 168.655Z" fill="#22272E"/>
<path d="M319.535 173.337C319.752 172.684 320.406 171.921 321.168 171.595C322.365 171.051 324.869 173.555 324.434 175.188C323.998 176.821 322.801 174.97 321.712 174.752C320.623 174.317 319.208 173.99 319.535 173.337Z" fill="#22272E"/>
<path d="M303.204 174.97C303.531 174.099 303.095 173.119 302.115 172.793C301.245 172.466 300.265 172.901 299.938 173.881L299.72 174.426L302.878 175.623L303.204 174.97Z" fill="#22272E"/>
<path d="M319.535 181.067C319.861 180.196 319.426 179.216 318.446 178.889C317.575 178.563 316.595 178.998 316.269 179.978L316.051 180.522L319.208 181.72L319.535 181.067Z" fill="#22272E"/>
<path d="M277.184 173.99C277.184 173.99 275.333 166.587 269.89 166.696C264.446 166.805 261.942 181.611 274.462 183.897" fill="#F4C2C9"/>
<path d="M269.019 173.446C269.019 172.901 269.128 172.466 269.563 171.922C269.781 171.704 270.107 171.486 270.543 171.486C270.87 171.486 271.305 171.595 271.523 171.704C271.632 171.704 271.849 171.922 271.958 172.03C272.176 172.139 272.176 172.357 272.285 172.466C272.394 172.684 272.394 172.793 272.503 172.901C272.503 173.01 272.612 173.228 272.612 173.337C272.72 173.881 272.72 174.317 272.72 174.752C272.72 175.623 272.72 176.494 272.72 177.256C272.72 177.583 272.829 177.909 273.047 178.236C273.265 178.563 273.591 178.78 274.027 178.998C273.591 179.216 273.047 179.216 272.503 178.998C271.958 178.78 271.523 178.236 271.305 177.692C270.87 176.712 270.761 175.732 270.761 174.752C270.761 173.881 270.652 172.901 270.652 172.901C270.434 172.684 270.325 172.575 269.999 172.575C269.781 172.793 269.454 173.119 269.019 173.446Z" fill="#22272E"/>
<path d="M302.878 197.179C303.313 196.526 303.749 195.873 303.966 195.329C304.402 194.349 303.966 193.26 302.986 192.934C301.898 192.498 300.482 191.736 298.849 190.429C295.474 187.708 293.95 190.103 294.168 193.151C297.434 193.478 300.374 195.546 302.878 197.179Z" fill="#22272E"/>
<path d="M294.168 193.042C294.386 195.655 295.801 198.813 298.632 199.248C300.482 199.575 301.898 198.486 302.878 197.179C300.374 195.546 297.434 193.478 294.168 193.042Z" fill="#E26E85"/>
<path d="M76.7536 373.332L60.7496 596.516C60.6408 598.367 62.1649 600 64.0157 600C65.7577 600 67.173 598.694 67.2819 597.061L86.5519 373.441H76.7536V373.332Z" fill="#B8D8C7"/>
<path d="M722.682 373.332L738.686 596.516C738.795 598.367 737.271 600 735.42 600C733.678 600 732.262 598.694 732.154 597.061L712.884 373.441H722.682V373.332Z" fill="#B8D8C7"/>
<path d="M756.758 368.65H42.6771L124.33 335.771H674.997L756.758 368.65Z" fill="white"/>
<path d="M756.867 368.65H42.6771V376.816H756.867V368.65Z" fill="#B8D8C7"/>
<path d="M326.611 330.328H372.446C373.643 330.328 374.841 330.655 375.93 331.417L417.518 359.179C418.933 360.05 418.28 362.227 416.647 362.227H350.345C348.821 362.227 347.406 361.574 346.426 360.267L325.305 333.05C324.434 331.961 325.196 330.328 326.611 330.328Z" fill="#FFE779"/>
<path d="M354.918 353.626H397.704" stroke="#6DAFA7" stroke-width="1.8" stroke-miterlimit="10" stroke-linecap="round" stroke-linejoin="round"/>
<path d="M385.837 345.461L376.909 338.711C376.474 338.384 376.038 338.276 375.603 338.276H363.954C363.518 338.276 363.409 338.711 363.627 339.038L370.377 345.57C370.813 346.005 371.357 346.223 371.901 346.223H385.619C386.054 346.223 386.163 345.788 385.837 345.461Z" fill="#22272E"/>
<path d="M361.668 346.223H349.91" stroke="#6DAFA7" stroke-width="1.8" stroke-miterlimit="10" stroke-linecap="round" stroke-linejoin="round"/>
<path d="M357.857 341.759H347.297" stroke="#6DAFA7" stroke-width="1.8" stroke-miterlimit="10" stroke-linecap="round" stroke-linejoin="round"/>
<path d="M591.275 366.691L578.211 367.671C577.122 367.779 575.925 367.671 574.836 367.344L515.175 351.013C513.868 350.687 512.889 349.38 512.889 347.965L614.356 345.461L591.275 366.691Z" fill="#63737A"/>
<path d="M576.687 362.989L601.945 295.816C602.816 293.421 605.211 291.788 607.715 291.897L711.359 293.856C713.646 293.856 715.279 296.251 714.299 298.429L690.347 357.11C689.476 359.287 687.408 360.703 685.122 360.921L579.953 367.562C577.667 367.562 575.925 365.166 576.687 362.989Z" fill="#22272E"/>
<path d="M580.388 367.562L578.211 367.671C577.122 367.779 575.925 367.671 574.836 367.344L515.175 351.013C513.868 350.578 512.889 349.38 512.889 347.965L578.32 363.642L580.388 367.562Z" fill="#22272E"/>
<path d="M664.327 328.15C663.13 332.288 658.884 335.663 654.747 335.663C650.61 335.663 648.215 332.288 649.412 328.15C650.61 324.013 654.856 320.638 658.993 320.638C663.13 320.53 665.525 324.013 664.327 328.15Z" fill="#63737A"/>
<path d="M79.6932 224.288C79.6932 224.288 90.3625 221.349 99.7253 238.115C109.088 254.881 113.77 286.018 116.709 289.175C119.649 292.332 124.439 294.727 139.899 304.635C155.358 314.542 156.229 314.868 169.62 316.501C183.011 318.135 183.882 322.707 188.019 327.28C192.156 331.852 195.096 335.009 191.177 335.336C187.366 335.663 183.011 330.001 180.507 331.634C178.003 333.268 176.152 334.574 171.689 335.772C167.116 336.86 168.531 338.711 164.285 338.276C160.04 337.84 151.765 338.058 154.378 335.772C156.882 333.485 154.378 332.941 154.378 332.941C154.378 332.941 108.326 326.735 93.4108 314.651C78.3867 302.566 74.5763 262.502 71.6368 249.22C68.5884 235.828 75.9916 224.288 79.6932 224.288Z" fill="#FFE7CA"/>
<path d="M116.709 289.175C116.709 289.175 112.572 288.74 109.633 290.264" stroke="#F8AB5D" stroke-width="1.8" stroke-miterlimit="10" stroke-linecap="round" stroke-linejoin="round"/>
<path d="M84.9189 171.268C84.9189 171.268 92.9753 163.647 89.8181 153.74C86.6608 143.724 76.8625 142.853 68.9149 145.248C60.9674 147.752 39.1933 143.615 31.2458 155.7C23.2982 167.784 28.3063 178.671 23.2982 181.829C18.2902 184.986 11.2136 187.272 12.4112 195.22C13.4999 203.167 34.8385 214.708 28.3063 223.853C21.774 232.889 15.5684 254.228 40.8264 266.312C65.9754 278.397 67.6085 249.546 69.2416 232.78C70.8746 216.014 65.8666 196.635 73.052 189.45C80.3463 182.046 86.3342 178.018 84.9189 171.268Z" fill="#22272E"/>
<path d="M48.1208 220.369C48.1208 220.369 76.9714 221.022 81.9795 223.308C86.9875 225.595 89.2738 233.324 90.798 239.203C92.431 245.082 103.754 252.159 105.822 265.115C107.891 278.07 96.7858 293.094 96.2415 295.489C95.806 297.993 95.5883 322.272 96.8947 327.28C98.31 332.288 100.487 340.453 100.27 344.046C100.052 347.638 84.8101 354.715 62.165 353.409C39.52 352.102 15.7862 340.671 15.0241 338.167C14.3709 335.663 21.7741 323.905 19.7056 299.3C17.637 274.804 5.87903 248.24 14.4798 233.651C23.0806 219.28 43.7659 220.26 48.1208 220.369Z" fill="#22272E"/>
<path d="M47.0321 199.683C47.0321 199.683 48.2297 212.312 48.0119 220.369C48.0119 220.369 51.1692 227.119 61.0764 229.078C73.0521 231.582 75.4473 224.724 73.8142 221.784C73.8142 221.784 70.9836 211.333 70.657 204.147C70.4392 197.179 47.5765 198.704 47.0321 199.683Z" fill="#FFE7CA"/>
<path d="M56.8304 210.135C61.2941 217.103 65.8667 219.933 73.7054 220.478C73.2699 218.954 72.7255 216.232 72.0723 213.292C65.8667 214.054 62.9272 211.877 56.8304 210.135Z" fill="#F8AB5D"/>
<path d="M42.895 220.369C42.895 220.369 49.2095 224.506 55.524 233.433C61.7296 242.361 69.6771 249.002 75.2295 248.349C80.7819 247.695 83.3948 240.401 76.2094 222.111C76.2094 222.111 58.7901 219.28 42.895 220.369Z" fill="#FFE7CA"/>
<path d="M145.56 323.36L191.176 320.53C191.721 320.53 192.374 319.332 192.592 319.768C192.701 319.876 192.592 321.618 192.592 321.727C192.592 322.054 192.483 322.489 192.265 322.707L157.862 357.981C156.447 359.396 154.487 360.159 152.419 359.941L107.564 355.477C107.128 355.477 106.693 355.15 106.584 354.824C106.475 354.606 104.733 351.667 104.842 351.34C104.842 351.013 107.346 351.013 107.673 350.796L142.511 324.558C143.273 323.905 144.362 323.469 145.56 323.36Z" fill="#63737A"/>
<path d="M145.015 320.53L191.285 318.57C192.483 318.57 193.136 319.985 192.265 320.856L156.665 355.912C155.249 357.328 153.181 358.09 151.112 357.763L105.713 352.211C104.516 352.102 104.08 350.578 105.06 349.816L141.749 321.618C142.62 320.965 143.818 320.53 145.015 320.53Z" fill="#22272E"/>
<path d="M165.483 318.461C165.483 318.461 164.286 318.679 164.286 320.965C164.286 323.143 165.156 329.348 162.87 329.784C160.693 330.219 159.604 327.497 158.515 325.102C157.427 322.707 154.161 322.598 152.092 319.114" fill="#FFE7CA"/>
<path d="M82.0883 159.619C82.0883 159.619 85.2456 168.002 85.5722 177.474C85.8988 187.055 89.1649 192.498 87.3141 200.772C85.4633 209.155 78.9311 215.47 70.8747 215.796C62.8183 216.123 51.0602 208.937 44.6369 200.337C38.2135 191.627 36.2539 173.772 40.0643 165.063C43.6571 156.462 72.1811 147.426 82.0883 159.619Z" fill="#FFE7CA"/>
<path d="M85.7899 168.982C85.7899 168.982 81.1085 169.526 78.169 164.736C78.169 164.736 71.0924 181.067 59.661 182.155C51.8224 182.917 50.2982 179.216 47.0321 182.155C43.766 185.095 53.2377 202.079 50.2982 215.905C47.3587 229.732 33.4233 233.542 23.6249 225.05C11.3226 214.272 24.7136 212.204 27.2177 196.962C29.7217 181.829 27.2177 170.18 35.2741 161.361C43.3305 152.543 51.278 147.099 64.0159 148.297C76.8626 149.494 82.0884 151.454 85.7899 168.982Z" fill="#22272E"/>
<path d="M52.1491 180.087C52.1491 180.087 51.387 185.857 51.7136 187.708C52.0402 189.559 48.3386 185.639 44.9636 188.143C43.1128 189.559 41.3709 180.631 44.9636 177.909C48.4475 175.188 50.516 177.474 52.1491 180.087Z" fill="#22272E"/>
<path d="M50.0803 187.817C50.0803 187.817 45.9433 182.482 41.4796 185.748C37.0159 189.123 42.786 198.921 49.536 198.159" fill="#FFE7CA"/>
<path d="M141.641 348.292C141.641 348.292 147.846 353.409 150.241 355.15C152.528 356.892 151.112 358.417 148.499 358.417C145.778 358.525 137.286 351.558 141.641 348.292Z" fill="#FFE7CA"/>
<path d="M18.2902 229.187C15.6773 230.385 13.6088 232.453 12.1935 234.957C9.58058 239.857 5.87899 249.437 8.60075 261.848C12.629 280.248 22.1007 307.901 26.3466 314.433C30.5926 320.965 50.5159 334.03 64.5601 342.739C78.6044 351.449 89.3826 356.239 91.9955 358.199C94.7173 360.158 99.8342 365.166 109.741 366.364C119.757 367.562 122.915 363.969 125.963 364.731C129.12 365.493 134.128 368.977 136.959 368.65C139.79 368.215 138.265 366.146 137.177 365.058C136.088 363.969 129.665 358.199 129.665 358.199C129.665 358.199 133.584 359.832 139.245 363.207C144.036 366.037 146.322 366.146 147.628 366.037C148.935 366.037 150.459 365.493 150.241 364.296C150.241 364.296 151.548 365.058 152.636 364.078C153.725 363.098 154.052 362.227 151.439 359.287C148.717 356.348 142.185 348.618 138.919 345.243C135.544 341.759 131.842 341.542 123.786 341.977C115.729 342.304 104.407 340.671 104.08 340.997C103.754 341.324 69.1327 304.635 58.6811 294.183C58.6811 294.183 50.2981 266.856 47.7941 255.098C42.6772 231.474 30.266 223.526 18.2902 229.187Z" fill="#FFE7CA"/>
<path d="M150.241 364.404C150.241 364.404 150.241 363.098 146.975 360.812C143.709 358.634 138.592 353.626 136.959 352.429C135.326 351.122 133.366 349.707 133.04 349.707" stroke="#F8AB5D" stroke-width="1.8" stroke-miterlimit="10" stroke-linecap="round" stroke-linejoin="round"/>
<path d="M129.665 358.308C129.665 358.308 127.161 356.13 125.963 356.457" stroke="#F8AB5D" stroke-width="1.8" stroke-miterlimit="10" stroke-linecap="round" stroke-linejoin="round"/>
<path d="M58.6811 294.183C58.6811 294.183 53.5642 293.639 49.536 297.776" stroke="#F8AB5D" stroke-width="1.8" stroke-miterlimit="10" stroke-linecap="round" stroke-linejoin="round"/>
<path d="M81.5441 183.244C82.3062 184.224 82.9594 185.204 83.6126 186.075C83.9392 186.51 84.2658 186.946 84.7013 187.272C84.919 187.49 85.0279 187.599 85.2457 187.817L85.5723 188.034C85.6811 188.143 85.8989 188.252 86.0077 188.47C86.5521 189.123 86.7699 189.994 86.7699 190.756C86.7699 191.518 86.4432 192.171 86.1166 192.716C85.4634 193.804 84.4836 194.784 83.1771 195.111C83.9392 194.131 84.3747 193.151 84.7013 192.063C85.0279 191.083 84.919 190.103 84.4836 189.667C84.4836 189.559 84.3747 189.559 84.2658 189.45C84.157 189.341 84.0481 189.232 83.8303 189.123C83.6126 188.905 83.286 188.579 83.1771 188.361C82.7416 187.817 82.415 187.272 82.1973 186.728C81.8707 185.748 81.5441 184.55 81.5441 183.244Z" fill="#22272E"/>
<path d="M78.169 202.841C78.169 202.841 75.0118 203.821 72.1812 200.881" stroke="#22272E" stroke-width="1.8" stroke-miterlimit="10" stroke-linecap="round" stroke-linejoin="round"/>
<path d="M70.7658 188.252C71.7457 188.143 72.3989 187.163 72.1812 186.184L71.9634 185.204C71.8546 184.224 70.8747 183.571 69.8949 183.788C68.9151 183.897 68.2618 184.877 68.4796 185.857L68.6973 186.837C68.9151 187.708 69.786 188.361 70.7658 188.252Z" fill="#22272E"/>
<path d="M84.048 186.075C85.0278 185.966 85.681 184.986 85.4633 184.006L85.2455 183.026C85.1367 182.046 84.1568 181.393 83.177 181.611C82.1972 181.72 81.5439 182.7 81.7617 183.68L81.9794 184.659C82.1972 185.53 83.0681 186.292 84.048 186.075Z" fill="#22272E"/>
<path d="M69.786 176.93C70.7658 177.038 71.5279 176.167 71.419 175.188C71.3101 174.317 71.0924 173.446 70.6569 172.901C69.6771 171.813 65.8666 172.139 63.036 174.317C60.0965 176.494 59.0078 179.325 60.4231 179.434C61.8384 179.542 63.9069 177.692 66.1932 177.147C67.2819 176.712 68.6972 176.821 69.786 176.93Z" fill="#22272E"/>
<path d="M84.0481 175.297C83.6126 175.623 83.0683 175.297 82.9594 174.861C82.7416 173.99 82.5239 172.684 82.8505 172.357C83.3949 171.704 85.0279 172.139 85.3545 173.119C85.6811 174.099 85.79 174.643 85.4634 174.643C85.2457 174.534 84.5924 174.861 84.0481 175.297Z" fill="#22272E"/>
<path d="M43.2216 190.647C42.895 190.321 42.7861 189.885 42.7861 189.341C42.7861 189.123 42.895 188.796 43.1127 188.47C43.3305 188.143 43.5482 188.034 43.8748 187.817C43.9837 187.817 44.0926 187.708 44.3103 187.708C44.5281 187.708 44.8547 187.708 45.0724 187.817C45.5079 188.034 45.7256 188.361 45.8345 188.579C46.1611 189.014 46.27 189.45 46.4877 189.885C46.8143 190.647 46.9232 191.409 47.1409 191.954C47.2498 192.28 47.3587 192.498 47.5764 192.716C47.7942 192.933 48.2297 193.042 48.6651 193.042C48.3385 193.369 47.903 193.587 47.3587 193.587C46.8143 193.587 46.27 193.26 45.9434 192.825C45.2902 192.063 44.9635 191.192 44.6369 190.538C44.5281 190.212 44.4192 189.776 44.3103 189.559C44.3103 189.45 44.2015 189.341 44.3103 189.341H44.4192H44.3103C44.0926 189.341 43.9837 189.341 43.766 189.559C43.4394 189.776 43.3305 190.212 43.2216 190.647Z" fill="#22272E"/>
<path d="M350.998 123.256H312.676L308.756 125.76C307.559 126.523 305.817 125.652 305.817 124.236V97.1275C305.817 94.4058 307.994 92.1195 310.825 92.1195H350.889C353.611 92.1195 355.897 94.2969 355.897 97.1275V118.248C355.897 121.079 353.72 123.256 350.998 123.256Z" fill="#F4C2C9"/>
<path d="M317.248 113.24L321.059 109.43C323.127 107.361 326.393 107.361 328.462 109.43C330.53 111.498 333.796 111.498 335.865 109.43L343.159 102.135" stroke="#22272E" stroke-width="1.8" stroke-linecap="round" stroke-linejoin="round"/>
<path d="M344.357 104.313L345.663 99.6315L340.982 100.938L344.357 104.313Z" fill="#22272E"/>
<path d="M687.408 249.764L587.029 238.006C584.09 237.679 582.348 235.066 583.001 232.127L606.191 126.087C606.735 123.583 609.13 121.515 611.743 121.188L716.476 110.192C719.198 109.865 721.267 112.043 720.722 114.656L692.96 245.736C692.307 248.24 689.912 250.09 687.408 249.764Z" fill="#63737A"/>
<path d="M683.38 249.764L582.13 237.897C579.191 237.57 577.34 234.958 577.993 232.018L601.4 125.216C601.944 122.603 604.34 120.535 607.061 120.317L712.557 109.212C715.279 108.886 717.347 111.063 716.803 113.676L688.714 245.845C688.279 248.24 685.775 250.091 683.38 249.764Z" fill="#22272E"/>
<path d="M646.037 147.317L607.932 149.168C606.953 149.168 606.191 148.406 606.408 147.426L609.457 133.273C609.674 132.51 610.328 131.857 611.199 131.748L649.63 128.482C650.718 128.373 651.372 129.244 651.154 130.224L647.779 145.902C647.67 146.555 646.908 147.208 646.037 147.317Z" fill="#6DAFA7"/>
<path d="M595.63 226.683C594.759 226.575 594.215 225.813 594.432 225.05L600.094 198.486C600.311 197.615 601.073 196.962 601.944 197.071C602.815 197.18 603.36 197.833 603.142 198.704L597.481 225.377C597.372 226.139 596.501 226.792 595.63 226.683Z" fill="#F4C2C9"/>
<path d="M609.13 226.357L615.88 195.002C616.098 194.131 616.86 193.478 617.731 193.587H617.949C618.819 193.587 619.364 194.349 619.255 195.22L612.505 226.575C612.287 227.445 611.416 228.099 610.545 227.99H610.328C609.457 227.99 608.912 227.228 609.13 226.357Z" fill="#FFE779"/>
<path d="M623.828 227.554L631.449 191.736C631.666 190.756 632.537 190.103 633.517 190.103C634.497 190.103 635.15 190.974 634.932 191.954L627.311 227.772C627.094 228.752 626.114 229.405 625.134 229.405C624.263 229.405 623.61 228.534 623.828 227.554Z" fill="#6DAFA7"/>
<path d="M678.263 159.946L680.767 165.28C677.718 168.764 674.017 170.942 670.533 170.942C663.783 170.942 660.19 162.776 662.368 152.651C664.545 142.527 671.73 133.926 678.589 133.381C682.182 133.055 684.904 134.906 686.537 138.172L681.746 143.833C680.767 141.873 679.134 140.676 677.065 140.893C672.928 141.22 668.573 146.337 667.158 152.543C665.851 158.639 668.029 163.647 672.166 163.539C674.343 163.321 676.521 162.014 678.263 159.946Z" fill="#6DAFA7"/>
<path d="M687.626 151.454C686.428 156.789 683.924 161.688 680.876 165.172L678.372 159.837C680.222 157.768 681.747 154.829 682.4 151.672C683.053 148.514 682.835 145.684 681.855 143.724L686.646 138.063C688.279 141.438 688.714 146.119 687.626 151.454Z" fill="#FFE779"/>
<path d="M649.194 212.748C647.017 222.873 650.61 231.038 657.36 231.038C660.843 231.038 664.545 228.861 667.593 225.377L665.089 220.042C663.238 222.111 661.061 223.417 658.993 223.526C654.855 223.635 652.678 218.627 653.984 212.53C654.529 209.808 655.835 207.196 657.36 205.236L655.073 200.228C652.351 203.712 650.174 208.067 649.194 212.748Z" fill="#6DAFA7"/>
<path d="M663.892 200.99C665.96 200.881 667.702 201.97 668.573 203.929L673.363 198.268C671.73 195.002 668.9 193.151 665.416 193.478C661.714 193.804 658.013 196.417 654.964 200.228L657.25 205.236C659.21 202.841 661.496 201.099 663.892 200.99Z" fill="#FFE779"/>
<path d="M674.343 211.768C673.146 217.103 670.642 222.002 667.593 225.486L665.089 220.151C666.94 218.083 668.464 215.143 669.117 211.986C669.771 208.829 669.553 205.998 668.573 204.038L673.363 198.377C674.996 201.643 675.541 206.433 674.343 211.768Z" fill="#F4C2C9"/>
<path d="M605.102 158.639L631.884 157.66" stroke="#63737A" stroke-width="1.8" stroke-miterlimit="10" stroke-linecap="round" stroke-linejoin="round"/>
<path d="M603.578 164.736L641.9 164.301" stroke="#63737A" stroke-width="1.8" stroke-miterlimit="10" stroke-linecap="round" stroke-linejoin="round"/>
<path d="M602.38 171.051H641.138" stroke="#63737A" stroke-width="1.8" stroke-miterlimit="10" stroke-linecap="round" stroke-linejoin="round"/>
<path d="M702.541 119.773C702.759 118.902 702.432 118.248 701.779 118.248C701.126 118.357 700.472 119.119 700.364 119.99C700.146 120.861 700.472 121.515 701.126 121.515C701.779 121.406 702.432 120.644 702.541 119.773Z" fill="#63737A"/>
<path d="M708.855 119.228C709.073 118.357 708.638 117.704 708.093 117.704C707.44 117.813 706.787 118.575 706.569 119.446C706.351 120.317 706.787 120.97 707.331 120.97C708.093 120.861 708.747 120.099 708.855 119.228Z" fill="#63737A"/>
<path d="M305.817 360.376V360.703C305.817 361.792 304.946 362.663 303.857 362.663H211.535C210.446 362.663 209.575 361.792 209.575 360.703C209.575 360.05 209.902 359.396 210.338 358.852L228.192 341.215C229.063 340.344 230.152 339.909 231.241 339.909H291.881C293.406 339.909 294.93 340.78 295.692 342.086L305.49 358.961C305.599 359.505 305.817 359.941 305.817 360.376Z" fill="#22272E"/>
<path d="M259.765 355.695C259.765 356.021 259.111 356.348 258.24 356.348C257.37 356.348 256.716 356.021 256.716 355.695C256.716 355.368 257.37 355.042 258.24 355.042C259.111 355.042 259.765 355.368 259.765 355.695Z" fill="#63737A"/>
<path d="M626.767 457.162C626.767 457.162 618.384 439.198 639.396 427.876C660.408 416.553 689.585 427.767 686.972 431.686C685.339 434.081 681.093 441.049 673.146 449.65C666.505 456.944 647.452 468.267 626.767 457.162Z" fill="#6DAFA7"/>
<path d="M683.271 430.924C683.271 430.924 637.11 420.582 626.658 457.162C616.315 493.742 619.473 528.799 619.473 528.799" stroke="#22272E" stroke-width="1.8" stroke-miterlimit="10" stroke-linecap="round" stroke-linejoin="round"/>
<path d="M585.179 498.315L592.691 586.827C592.691 590.202 606.408 592.815 623.392 592.815C640.267 592.815 654.094 590.093 654.094 586.827L661.606 498.315H585.179Z" fill="#22272E"/>
<path d="M623.392 504.085C644.437 504.085 661.497 501.502 661.497 498.315C661.497 495.128 644.437 492.545 623.392 492.545C602.348 492.545 585.287 495.128 585.287 498.315C585.287 501.502 602.348 504.085 623.392 504.085Z" fill="#6DAFA7"/>
<path d="M613.703 479.916C613.703 479.916 601.4 473.819 593.453 487.537C585.505 501.363 591.384 521.94 596.828 524.988C602.271 528.037 624.916 517.694 624.916 496.9C624.916 478.392 613.703 479.916 613.703 479.916Z" fill="#6DAFA7"/>
<path d="M613.703 479.916C613.703 479.916 601.4 479.045 597.699 522.158" stroke="#22272E" stroke-width="1.8" stroke-miterlimit="10" stroke-linecap="round" stroke-linejoin="round"/>
<path d="M604.34 454.767C604.34 454.767 591.384 434.626 565.473 447.581C539.562 460.537 540.324 496.246 544.352 498.315C548.489 500.384 609.021 479.263 604.34 454.767Z" fill="#6DAFA7"/>
<path d="M624.916 496.9C624.916 496.9 616.86 468.593 604.34 454.658C591.711 440.722 552.953 456.726 546.094 490.367" stroke="#22272E" stroke-width="1.8" stroke-miterlimit="10" stroke-linecap="round" stroke-linejoin="round"/>
<path d="M639.396 466.089C639.396 466.089 628.4 462.279 623.392 475.888C618.493 489.17 624.263 519.436 652.569 528.581C654.094 529.016 655.727 528.581 656.707 527.383C660.19 523.355 667.485 512.795 667.485 496.9C667.376 474.799 655.182 458.795 639.396 466.089Z" fill="#6DAFA7"/>
<path d="M639.396 466.089C639.396 466.089 662.259 477.303 653.876 524.444" stroke="#22272E" stroke-width="1.8" stroke-miterlimit="10" stroke-linecap="round" stroke-linejoin="round"/>
<path d="M407.829 320.421C407.829 320.421 408.264 334.138 428.078 335.445C447.784 336.86 486.215 332.396 493.727 330.328C501.239 328.259 500.804 316.175 496.014 312.8C491.223 309.425 462.482 307.901 447.784 305.723C444.409 305.179 440.49 304.526 436.462 304.199C432.978 303.872 429.494 303.655 426.119 303.764C416.212 304.199 407.937 308.01 407.829 320.421Z" fill="#6DAFA7"/>
<path d="M407.611 316.61C407.611 316.61 407.611 313.78 411.857 314.542C421.111 316.284 428.95 336.207 419.478 333.703" stroke="#22272E" stroke-width="1.8" stroke-miterlimit="10" stroke-linecap="round" stroke-linejoin="round"/>
<path d="M447.675 305.723C444.3 305.179 440.381 304.526 436.353 304.199C432.869 303.872 429.385 303.655 426.01 303.764" stroke="#22272E" stroke-width="1.8" stroke-miterlimit="10" stroke-linecap="round" stroke-linejoin="round"/>
<path d="M544.897 242.143C548.489 243.34 551.102 246.171 555.675 259.998C561.663 278.07 569.284 316.393 565.364 326.735C561.445 337.078 553.606 342.413 527.26 343.61C500.913 344.808 475.328 342.739 471.954 342.739C468.579 342.739 462.917 330.328 466.51 322.163C466.51 322.163 488.828 316.719 501.457 313.344C514.086 309.969 528.022 306.376 533.792 305.723C533.792 305.723 524.429 282.752 521.381 274.695C518.332 266.639 520.836 252.921 528.022 246.715C535.098 240.619 541.848 241.163 544.897 242.143Z" fill="#6DAFA7"/>
<path d="M533.683 305.723C533.683 305.723 544.461 303.546 550.884 305.723" stroke="#22272E" stroke-width="1.8" stroke-miterlimit="10" stroke-linecap="round" stroke-linejoin="round"/>
<path d="M566.453 320.421C566.453 320.421 564.167 314.977 554.913 321.074C547.618 325.864 545.441 340.235 553.388 339.364" stroke="#22272E" stroke-width="1.8" stroke-miterlimit="10" stroke-linecap="round" stroke-linejoin="round"/>
<path d="M468.687 322.38C468.687 322.38 462.917 322.925 457.038 322.925C451.159 322.925 443.211 323.905 441.361 324.776C439.51 325.538 420.784 344.372 421.22 346.876C421.546 349.38 425.139 347.747 428.187 345.679C431.127 343.501 436.897 337.949 438.095 337.187C438.095 337.187 436.57 340.671 435.155 345.896C433.74 351.122 432.324 356.348 433.74 357.219C435.591 358.308 437.332 356.457 437.877 355.368C437.877 355.368 437.768 358.09 439.945 358.199C442.123 358.308 444.191 354.171 445.933 350.687C447.784 347.203 451.486 342.63 451.486 342.63C451.486 342.63 449.744 348.183 449.091 351.231C448.437 354.279 448.002 357.872 449.635 358.199C452.139 358.743 454.425 351.34 455.84 348.509C457.365 345.57 462.808 347.529 466.836 345.025C470.973 342.413 473.151 341.759 473.151 341.759C473.151 341.759 475.873 339.038 475.873 333.159C475.873 327.171 470.973 322.163 468.687 322.38Z" fill="#F4C2C9"/>
<path d="M437.659 355.477C437.659 355.477 442.885 340.235 445.062 337.296C447.24 334.356 448.002 334.138 448.655 333.703" stroke="#E26E85" stroke-width="1.8" stroke-miterlimit="10" stroke-linecap="round" stroke-linejoin="round"/>
<path d="M437.877 337.296C437.877 337.296 438.748 335.554 440.163 332.941C440.925 331.634 442.558 330.328 442.558 330.328" stroke="#E26E85" stroke-width="1.8" stroke-miterlimit="10" stroke-linecap="round" stroke-linejoin="round"/>
<path d="M451.268 342.63C451.268 342.63 452.792 338.929 454.316 338.493" stroke="#E26E85" stroke-width="1.8" stroke-miterlimit="10" stroke-linecap="round" stroke-linejoin="round"/>
<path d="M485.998 311.276C485.998 311.276 490.353 309.86 494.381 308.009C498.409 306.159 500.042 305.397 503.199 305.179C506.357 304.852 516.264 304.852 517.679 305.723C519.094 306.594 520.945 310.731 521.925 312.8C522.905 314.868 519.748 323.034 519.748 323.034C519.748 323.034 521.163 330.219 519.421 330.981C518.332 331.417 517.352 331.199 515.937 327.388C515.937 327.388 516.917 330.654 514.957 330.872C512.998 331.09 510.82 325.429 509.405 322.925C507.99 320.421 505.268 317.263 505.268 317.263C505.268 317.263 506.465 321.183 506.683 322.489C506.901 323.905 507.772 327.171 507.228 328.477C506.683 329.784 504.724 328.042 502.764 323.578C500.804 319.114 500.151 317.59 498.953 317.699C492.203 318.352 492.639 316.828 489.373 316.61L482.187 318.461C482.078 318.352 481.316 313.997 485.998 311.276Z" fill="#F4C2C9"/>
<path d="M515.937 327.279C515.937 327.279 513.76 320.203 512.997 318.026C512.235 315.957 509.731 312.038 509.731 312.038" stroke="#E26E85" stroke-width="1.8" stroke-miterlimit="10" stroke-linecap="round" stroke-linejoin="round"/>
<path d="M519.748 322.925C519.748 322.925 518.441 315.304 517.897 313.453C517.352 311.711 516.481 310.078 516.481 310.078" stroke="#E26E85" stroke-width="1.8" stroke-miterlimit="10" stroke-linecap="round" stroke-linejoin="round"/>
<path d="M505.159 317.155C505.159 317.155 504.506 314.977 504.179 314.324" stroke="#E26E85" stroke-width="1.8" stroke-miterlimit="10" stroke-linecap="round" stroke-linejoin="round"/>
</g>
</svg>
