<svg width="41" height="50" viewBox="0 0 41 50" fill="none" xmlns="http://www.w3.org/2000/svg">
<path fill-rule="evenodd" clip-rule="evenodd" d="M19.4441 0.71999C19.2562 1.25382 19.1441 2.18239 19.1943 2.78322C19.4332 5.62353 19.0537 6.22218 17.2374 5.87479C16.129 5.66286 13.2996 6.45815 9.99534 7.91034C5.31611 9.96702 4.34604 10.7215 2.91496 13.4184C2.00315 15.1371 1.47805 16.7641 1.74825 17.0336C2.01844 17.3038 6.52944 16.1349 11.7738 14.4358C22.591 10.9313 25.3658 10.8949 15.6359 14.3848C-0.390724 20.1331 -1.60259 20.8418 1.15615 22.8591C1.92522 23.4214 2.37312 24.6034 2.29009 25.8487C2.21362 26.9819 2.18667 28.2688 2.22891 28.708C2.27115 29.1479 8.6888 26.7722 16.4902 23.4279C24.2908 20.0844 30.9182 17.3489 31.2161 17.3489C31.514 17.3489 25.1313 20.6466 17.032 24.6769C2.68482 31.817 0.178792 33.68 3.68912 34.5976C4.49388 34.8081 5.58339 36.3003 6.29784 38.1706C6.97296 39.9374 7.5971 41.3823 7.68522 41.3823C7.77407 41.3823 11.2524 40.2353 15.4152 38.8333C25.6666 35.3812 26.4233 35.6762 16.5368 39.271C9.00633 42.0094 5.75891 43.549 9.40834 42.6502C10.4352 42.3975 11.272 42.6452 11.6449 43.3115C12.1569 44.2255 12.7898 44.1607 16.1078 42.8527C18.2344 42.0145 20.1112 41.4661 20.2794 41.6336C20.447 41.8018 18.9299 42.5337 16.9075 43.2613C14.885 43.9881 13.2304 44.806 13.2304 45.0783C13.2304 46.0404 15.3621 47.3273 16.1486 46.8408C16.5878 46.5699 17.7334 47.1969 18.6954 48.2347C20.889 50.6017 21.492 50.5944 23.3943 48.1765C24.5538 46.7024 25.1291 46.4351 25.7678 47.0738C26.4065 47.7126 26.9316 47.6273 27.9315 46.7214C29.9955 44.854 29.5075 44.393 26.2434 45.1264C22.015 46.0761 21.9319 45.4206 26.1363 44.2831C28.051 43.7653 30.0224 43.0275 30.5177 42.6444C31.0136 42.2613 31.9058 42.1346 32.5015 42.3633C33.2903 42.6655 33.9348 41.7705 34.8779 39.0605C35.6382 36.8757 36.7001 35.2006 37.4539 34.9982C39.091 34.5583 39.5863 32.5249 39.3073 27.3876L39.0845 23.2859L27.102 27.5733C20.511 29.9315 15.0074 31.75 14.8712 31.6138C14.7357 31.4776 20.5373 28.9971 27.7648 26.1007C34.9923 23.205 40.9052 20.7187 40.9052 20.5759C40.9052 18.6504 37.1283 11.2816 34.9056 8.86949C31.6625 5.35115 28.7771 4.42769 24.62 5.57546C21.755 6.36638 21.9385 6.60526 21.6799 1.75488C21.5918 0.10022 19.9321 -0.66812 19.4441 0.71999ZM9.84532 5.69126C8.24964 6.33506 6.83969 7.90597 7.90735 7.85063C8.23144 7.83387 9.64358 7.19226 11.0455 6.42464C13.6054 5.0227 12.7694 4.51217 9.84532 5.69126ZM23.4264 40.654C22.8255 41.0422 22.0062 41.3597 21.6057 41.3597C21.2051 41.3597 21.369 41.0422 21.9698 40.654C22.5706 40.2658 23.39 39.9483 23.7905 39.9483C24.1911 39.9483 24.0272 40.2658 23.4264 40.654Z" fill="#6ED629"/>
</svg>
