<svg width="66" height="80" viewBox="0 0 66 80" fill="none" xmlns="http://www.w3.org/2000/svg">
<path fill-rule="evenodd" clip-rule="evenodd" d="M31.1106 1.15198C30.8099 2.00612 30.6305 3.49182 30.7109 4.45315C31.0931 8.99765 30.486 9.95549 27.5798 9.39966C25.8063 9.06057 21.2793 10.333 15.9925 12.6566C8.50578 15.9472 6.95366 17.1544 4.66393 21.4694C3.20504 24.2194 2.36488 26.8226 2.79719 27.2537C3.2295 27.686 10.4471 25.8158 18.8381 23.0972C36.1456 17.49 40.5853 17.4318 25.0175 23.0157C-0.625158 32.213 -2.56415 33.3468 1.84984 36.5746C3.08035 37.4742 3.79699 39.3654 3.66415 41.358C3.54179 43.1711 3.49868 45.2301 3.56626 45.9327C3.63385 46.6366 13.9021 42.8355 26.3843 37.4846C38.8653 32.135 49.4692 27.7583 49.9458 27.7583C50.4223 27.7583 40.2101 33.0345 27.2512 39.4831C4.29571 50.9072 0.286068 53.8879 5.9026 55.3562C7.19021 55.6929 8.93343 58.0805 10.0765 61.0729C11.1567 63.8998 12.1554 66.2117 12.2964 66.2117C12.4385 66.2117 18.0038 64.3764 24.6644 62.1333C41.0665 56.61 42.2772 57.0819 26.4589 62.8336C14.4101 67.215 9.21425 69.6783 15.0533 68.2404C16.6964 67.836 18.0352 68.2322 18.6319 69.2985C19.451 70.7608 20.4636 70.6571 25.7725 68.5643C29.1751 67.2231 32.1779 66.3457 32.4471 66.6137C32.7151 66.8829 30.2879 68.054 27.052 69.218C23.8161 70.381 21.1686 71.6895 21.1686 72.1254C21.1686 73.6647 24.5793 75.7237 25.8378 74.9453C26.5404 74.5118 28.3734 75.5151 29.9127 77.1756C33.4224 80.9626 34.3873 80.951 37.4309 77.0824C39.286 74.7239 40.2066 74.2962 41.2285 75.3182C42.2504 76.3401 43.0906 76.2037 44.6905 74.7542C47.9928 71.7665 47.2121 71.0289 41.9894 72.2023C35.2239 73.7218 35.0911 72.673 41.8181 70.8529C44.8816 70.0244 48.0359 68.844 48.8283 68.2311C49.6218 67.6182 51.0493 67.4154 52.0024 67.7813C53.2644 68.2649 54.2957 66.8328 55.8047 62.4968C57.0212 59.0011 58.7201 56.321 59.9262 55.9971C62.5457 55.2932 63.338 52.0399 62.8917 43.8201L62.5352 37.2574L43.3632 44.1173C32.8177 47.8904 24.0118 50.8 23.7939 50.5821C23.5772 50.3642 32.8596 46.3954 44.4236 41.7611C55.9876 37.1281 65.4483 33.1499 65.4483 32.9215C65.4483 29.8406 59.4053 18.0505 55.8489 14.1912C50.6601 8.56184 46.0433 7.0843 39.392 8.92074C34.8079 10.1862 35.1016 10.5684 34.6879 2.80781C34.5469 0.160352 31.8913 -1.06899 31.1106 1.15198ZM15.7525 9.10602C13.1994 10.1361 10.9435 12.6496 12.6518 12.561C13.1703 12.5342 15.4297 11.5076 17.6728 10.2794C21.7687 8.03631 20.431 7.21947 15.7525 9.10602ZM37.4822 65.0464C36.5209 65.6675 35.2099 66.1756 34.5691 66.1756C33.9282 66.1756 34.1903 65.6675 35.1517 65.0464C36.113 64.4254 37.4239 63.9173 38.0648 63.9173C38.7057 63.9173 38.4435 64.4254 37.4822 65.0464Z" fill="#D3EDEA"/>
</svg>
