<svg width="32" height="32" viewBox="0 0 32 32" fill="none" xmlns="http://www.w3.org/2000/svg">
<path d="M22.6666 2.66666H9.33329C5.65139 2.66666 2.66663 5.65142 2.66663 9.33332V22.6667C2.66663 26.3486 5.65139 29.3333 9.33329 29.3333H22.6666C26.3485 29.3333 29.3333 26.3486 29.3333 22.6667V9.33332C29.3333 5.65142 26.3485 2.66666 22.6666 2.66666Z" stroke="#D3EDEA" stroke-width="0.5" stroke-linecap="round" stroke-linejoin="round"/>
<path d="M21.3335 15.16C21.498 16.2697 21.3085 17.403 20.7918 18.3987C20.2751 19.3944 19.4577 20.2019 18.4556 20.7062C17.4536 21.2106 16.3181 21.3861 15.2105 21.2079C14.103 21.0297 13.0798 20.5068 12.2866 19.7136C11.4934 18.9203 10.9704 17.8972 10.7922 16.7896C10.614 15.6821 10.7896 14.5465 11.2939 13.5445C11.7983 12.5425 12.6057 11.725 13.6015 11.2083C14.5972 10.6917 15.7305 10.5021 16.8401 10.6667C17.972 10.8345 19.0199 11.362 19.8291 12.1711C20.6382 12.9802 21.1656 14.0281 21.3335 15.16Z" stroke="#D3EDEA" stroke-width="0.5" stroke-linecap="round" stroke-linejoin="round"/>
<path d="M23.3335 8.66666H23.3468" stroke="#D3EDEA" stroke-width="0.5" stroke-linecap="round" stroke-linejoin="round"/>
</svg>
