<svg width="32" height="32" viewBox="0 0 32 32" fill="none" xmlns="http://www.w3.org/2000/svg">
<path d="M21.667 11C23.7887 11 25.8236 11.8429 27.3238 13.3431C28.8241 14.8434 29.667 16.8783 29.667 19V28.3333H24.3337V19C24.3337 18.2928 24.0527 17.6145 23.5526 17.1144C23.0525 16.6143 22.3742 16.3333 21.667 16.3333C20.9597 16.3333 20.2815 16.6143 19.7814 17.1144C19.2813 17.6145 19.0003 18.2928 19.0003 19V28.3333H13.667V19C13.667 16.8783 14.5098 14.8434 16.0101 13.3431C17.5104 11.8429 19.5453 11 21.667 11V11Z" stroke="#D3EDEA" stroke-width="0.5" stroke-linecap="round" stroke-linejoin="round"/>
<path d="M8.33333 12.3334H3V28.3334H8.33333V12.3334Z" stroke="#D3EDEA" stroke-width="0.5" stroke-linecap="round" stroke-linejoin="round"/>
<path d="M5.66667 8.33333C7.13943 8.33333 8.33333 7.13943 8.33333 5.66667C8.33333 4.19391 7.13943 3 5.66667 3C4.19391 3 3 4.19391 3 5.66667C3 7.13943 4.19391 8.33333 5.66667 8.33333Z" stroke="#D3EDEA" stroke-width="0.5" stroke-linecap="round" stroke-linejoin="round"/>
</svg>
