<svg width="32" height="32" viewBox="0 0 32 32" fill="none" xmlns="http://www.w3.org/2000/svg">
<path d="M30.6666 4C29.3898 4.90063 27.9761 5.58947 26.4799 6.04C25.6769 5.11668 24.6097 4.46225 23.4226 4.16523C22.2356 3.86821 20.9859 3.94292 19.8427 4.37927C18.6995 4.81561 17.7178 5.59253 17.0306 6.60495C16.3433 7.61737 15.9835 8.81644 15.9999 10.04V11.3733C13.6568 11.4341 11.335 10.9144 9.24126 9.86059C7.14758 8.80677 5.34701 7.25151 3.99992 5.33333C3.99992 5.33333 -1.33341 17.3333 10.6666 22.6667C7.92062 24.5306 4.64946 25.4652 1.33325 25.3333C13.3333 32 27.9999 25.3333 27.9999 9.99999C27.9987 9.6286 27.963 9.25812 27.8933 8.89333C29.2541 7.55132 30.2144 5.85695 30.6666 4V4Z" stroke="#D3EDEA" stroke-width="0.5" stroke-linecap="round" stroke-linejoin="round"/>
</svg>
